<svg xmlns="http://www.w3.org/2000/svg" width="990" height="214" viewBox="0 0 990 214">
<g id="sticker-wliyc49vwo"><path d="M20,107a87,87 0 1,0 174,0a87,87 0 1,0 -174,0Z" fill="white" stroke="black" stroke-width="0.5"/><path d="M47.00,47.00h4.14v4.14h-4.14ZM51.14,47.00h4.14v4.14h-4.14ZM55.28,47.00h4.14v4.14h-4.14ZM59.41,47.00h4.14v4.14h-4.14ZM63.55,47.00h4.14v4.14h-4.14ZM67.69,47.00h4.14v4.14h-4.14ZM71.83,47.00h4.14v4.14h-4.14ZM80.10,47.00h4.14v4.14h-4.14ZM84.24,47.00h4.14v4.14h-4.14ZM88.38,47.00h4.14v4.14h-4.14ZM96.66,47.00h4.14v4.14h-4.14ZM104.93,47.00h4.14v4.14h-4.14ZM117.34,47.00h4.14v4.14h-4.14ZM121.48,47.00h4.14v4.14h-4.14ZM129.76,47.00h4.14v4.14h-4.14ZM138.03,47.00h4.14v4.14h-4.14ZM142.17,47.00h4.14v4.14h-4.14ZM146.31,47.00h4.14v4.14h-4.14ZM150.45,47.00h4.14v4.14h-4.14ZM154.59,47.00h4.14v4.14h-4.14ZM158.72,47.00h4.14v4.14h-4.14ZM162.86,47.00h4.14v4.14h-4.14ZM47.00,51.14h4.14v4.14h-4.14ZM71.83,51.14h4.14v4.14h-4.14ZM88.38,51.14h4.14v4.14h-4.14ZM113.21,51.14h4.14v4.14h-4.14ZM117.34,51.14h4.14v4.14h-4.14ZM125.62,51.14h4.14v4.14h-4.14ZM129.76,51.14h4.14v4.14h-4.14ZM138.03,51.14h4.14v4.14h-4.14ZM162.86,51.14h4.14v4.14h-4.14ZM47.00,55.28h4.14v4.14h-4.14ZM55.28,55.28h4.14v4.14h-4.14ZM59.41,55.28h4.14v4.14h-4.14ZM63.55,55.28h4.14v4.14h-4.14ZM71.83,55.28h4.14v4.14h-4.14ZM84.24,55.28h4.14v4.14h-4.14ZM88.38,55.28h4.14v4.14h-4.14ZM92.52,55.28h4.14v4.14h-4.14ZM100.79,55.28h4.14v4.14h-4.14ZM117.34,55.28h4.14v4.14h-4.14ZM121.48,55.28h4.14v4.14h-4.14ZM138.03,55.28h4.14v4.14h-4.14ZM146.31,55.28h4.14v4.14h-4.14ZM150.45,55.28h4.14v4.14h-4.14ZM154.59,55.28h4.14v4.14h-4.14ZM162.86,55.28h4.14v4.14h-4.14ZM47.00,59.41h4.14v4.14h-4.14ZM55.28,59.41h4.14v4.14h-4.14ZM59.41,59.41h4.14v4.14h-4.14ZM63.55,59.41h4.14v4.14h-4.14ZM71.83,59.41h4.14v4.14h-4.14ZM80.10,59.41h4.14v4.14h-4.14ZM84.24,59.41h4.14v4.14h-4.14ZM88.38,59.41h4.14v4.14h-4.14ZM104.93,59.41h4.14v4.14h-4.14ZM113.21,59.41h4.14v4.14h-4.14ZM121.48,59.41h4.14v4.14h-4.14ZM129.76,59.41h4.14v4.14h-4.14ZM138.03,59.41h4.14v4.14h-4.14ZM146.31,59.41h4.14v4.14h-4.14ZM150.45,59.41h4.14v4.14h-4.14ZM154.59,59.41h4.14v4.14h-4.14ZM162.86,59.41h4.14v4.14h-4.14ZM47.00,63.55h4.14v4.14h-4.14ZM55.28,63.55h4.14v4.14h-4.14ZM59.41,63.55h4.14v4.14h-4.14ZM63.55,63.55h4.14v4.14h-4.14ZM71.83,63.55h4.14v4.14h-4.14ZM80.10,63.55h4.14v4.14h-4.14ZM84.24,63.55h4.14v4.14h-4.14ZM88.38,63.55h4.14v4.14h-4.14ZM96.66,63.55h4.14v4.14h-4.14ZM100.79,63.55h4.14v4.14h-4.14ZM104.93,63.55h4.14v4.14h-4.14ZM109.07,63.55h4.14v4.14h-4.14ZM113.21,63.55h4.14v4.14h-4.14ZM129.76,63.55h4.14v4.14h-4.14ZM138.03,63.55h4.14v4.14h-4.14ZM146.31,63.55h4.14v4.14h-4.14ZM150.45,63.55h4.14v4.14h-4.14ZM154.59,63.55h4.14v4.14h-4.14ZM162.86,63.55h4.14v4.14h-4.14ZM47.00,67.69h4.14v4.14h-4.14ZM71.83,67.69h4.14v4.14h-4.14ZM80.10,67.69h4.14v4.14h-4.14ZM84.24,67.69h4.14v4.14h-4.14ZM92.52,67.69h4.14v4.14h-4.14ZM96.66,67.69h4.14v4.14h-4.14ZM100.79,67.69h4.14v4.14h-4.14ZM104.93,67.69h4.14v4.14h-4.14ZM113.21,67.69h4.14v4.14h-4.14ZM121.48,67.69h4.14v4.14h-4.14ZM125.62,67.69h4.14v4.14h-4.14ZM129.76,67.69h4.14v4.14h-4.14ZM138.03,67.69h4.14v4.14h-4.14ZM162.86,67.69h4.14v4.14h-4.14ZM47.00,71.83h4.14v4.14h-4.14ZM51.14,71.83h4.14v4.14h-4.14ZM55.28,71.83h4.14v4.14h-4.14ZM59.41,71.83h4.14v4.14h-4.14ZM63.55,71.83h4.14v4.14h-4.14ZM67.69,71.83h4.14v4.14h-4.14ZM71.83,71.83h4.14v4.14h-4.14ZM80.10,71.83h4.14v4.14h-4.14ZM88.38,71.83h4.14v4.14h-4.14ZM96.66,71.83h4.14v4.14h-4.14ZM104.93,71.83h4.14v4.14h-4.14ZM113.21,71.83h4.14v4.14h-4.14ZM121.48,71.83h4.14v4.14h-4.14ZM129.76,71.83h4.14v4.14h-4.14ZM138.03,71.83h4.14v4.14h-4.14ZM142.17,71.83h4.14v4.14h-4.14ZM146.31,71.83h4.14v4.14h-4.14ZM150.45,71.83h4.14v4.14h-4.14ZM154.59,71.83h4.14v4.14h-4.14ZM158.72,71.83h4.14v4.14h-4.14ZM162.86,71.83h4.14v4.14h-4.14ZM80.10,75.97h4.14v4.14h-4.14ZM92.52,75.97h4.14v4.14h-4.14ZM96.66,75.97h4.14v4.14h-4.14ZM104.93,75.97h4.14v4.14h-4.14ZM117.34,75.97h4.14v4.14h-4.14ZM121.48,75.97h4.14v4.14h-4.14ZM47.00,80.10h4.14v4.14h-4.14ZM63.55,80.10h4.14v4.14h-4.14ZM71.83,80.10h4.14v4.14h-4.14ZM75.97,80.10h4.14v4.14h-4.14ZM80.10,80.10h4.14v4.14h-4.14ZM92.52,80.10h4.14v4.14h-4.14ZM100.79,80.10h4.14v4.14h-4.14ZM104.93,80.10h4.14v4.14h-4.14ZM113.21,80.10h4.14v4.14h-4.14ZM117.34,80.10h4.14v4.14h-4.14ZM125.62,80.10h4.14v4.14h-4.14ZM133.90,80.10h4.14v4.14h-4.14ZM138.03,80.10h4.14v4.14h-4.14ZM142.17,80.10h4.14v4.14h-4.14ZM146.31,80.10h4.14v4.14h-4.14ZM150.45,80.10h4.14v4.14h-4.14ZM162.86,80.10h4.14v4.14h-4.14ZM55.28,84.24h4.14v4.14h-4.14ZM67.69,84.24h4.14v4.14h-4.14ZM75.97,84.24h4.14v4.14h-4.14ZM80.10,84.24h4.14v4.14h-4.14ZM84.24,84.24h4.14v4.14h-4.14ZM88.38,84.24h4.14v4.14h-4.14ZM109.07,84.24h4.14v4.14h-4.14ZM113.21,84.24h4.14v4.14h-4.14ZM129.76,84.24h4.14v4.14h-4.14ZM138.03,84.24h4.14v4.14h-4.14ZM142.17,84.24h4.14v4.14h-4.14ZM146.31,84.24h4.14v4.14h-4.14ZM150.45,84.24h4.14v4.14h-4.14ZM154.59,84.24h4.14v4.14h-4.14ZM158.72,84.24h4.14v4.14h-4.14ZM162.86,84.24h4.14v4.14h-4.14ZM51.14,88.38h4.14v4.14h-4.14ZM55.28,88.38h4.14v4.14h-4.14ZM59.41,88.38h4.14v4.14h-4.14ZM63.55,88.38h4.14v4.14h-4.14ZM67.69,88.38h4.14v4.14h-4.14ZM71.83,88.38h4.14v4.14h-4.14ZM75.97,88.38h4.14v4.14h-4.14ZM84.24,88.38h4.14v4.14h-4.14ZM100.79,88.38h4.14v4.14h-4.14ZM104.93,88.38h4.14v4.14h-4.14ZM109.07,88.38h4.14v4.14h-4.14ZM113.21,88.38h4.14v4.14h-4.14ZM162.86,88.38h4.14v4.14h-4.14ZM47.00,92.52h4.14v4.14h-4.14ZM55.28,92.52h4.14v4.14h-4.14ZM67.69,92.52h4.14v4.14h-4.14ZM75.97,92.52h4.14v4.14h-4.14ZM88.38,92.52h4.14v4.14h-4.14ZM92.52,92.52h4.14v4.14h-4.14ZM96.66,92.52h4.14v4.14h-4.14ZM100.79,92.52h4.14v4.14h-4.14ZM117.34,92.52h4.14v4.14h-4.14ZM133.90,92.52h4.14v4.14h-4.14ZM138.03,92.52h4.14v4.14h-4.14ZM142.17,92.52h4.14v4.14h-4.14ZM150.45,92.52h4.14v4.14h-4.14ZM158.72,92.52h4.14v4.14h-4.14ZM162.86,92.52h4.14v4.14h-4.14ZM63.55,96.66h4.14v4.14h-4.14ZM71.83,96.66h4.14v4.14h-4.14ZM88.38,96.66h4.14v4.14h-4.14ZM100.79,96.66h4.14v4.14h-4.14ZM113.21,96.66h4.14v4.14h-4.14ZM117.34,96.66h4.14v4.14h-4.14ZM121.48,96.66h4.14v4.14h-4.14ZM125.62,96.66h4.14v4.14h-4.14ZM133.90,96.66h4.14v4.14h-4.14ZM158.72,96.66h4.14v4.14h-4.14ZM51.14,100.79h4.14v4.14h-4.14ZM59.41,100.79h4.14v4.14h-4.14ZM88.38,100.79h4.14v4.14h-4.14ZM92.52,100.79h4.14v4.14h-4.14ZM96.66,100.79h4.14v4.14h-4.14ZM100.79,100.79h4.14v4.14h-4.14ZM104.93,100.79h4.14v4.14h-4.14ZM109.07,100.79h4.14v4.14h-4.14ZM113.21,100.79h4.14v4.14h-4.14ZM117.34,100.79h4.14v4.14h-4.14ZM121.48,100.79h4.14v4.14h-4.14ZM129.76,100.79h4.14v4.14h-4.14ZM138.03,100.79h4.14v4.14h-4.14ZM142.17,100.79h4.14v4.14h-4.14ZM146.31,100.79h4.14v4.14h-4.14ZM150.45,100.79h4.14v4.14h-4.14ZM154.59,100.79h4.14v4.14h-4.14ZM158.72,100.79h4.14v4.14h-4.14ZM162.86,100.79h4.14v4.14h-4.14ZM47.00,104.93h4.14v4.14h-4.14ZM59.41,104.93h4.14v4.14h-4.14ZM63.55,104.93h4.14v4.14h-4.14ZM71.83,104.93h4.14v4.14h-4.14ZM92.52,104.93h4.14v4.14h-4.14ZM96.66,104.93h4.14v4.14h-4.14ZM109.07,104.93h4.14v4.14h-4.14ZM121.48,104.93h4.14v4.14h-4.14ZM129.76,104.93h4.14v4.14h-4.14ZM133.90,104.93h4.14v4.14h-4.14ZM146.31,104.93h4.14v4.14h-4.14ZM150.45,104.93h4.14v4.14h-4.14ZM154.59,104.93h4.14v4.14h-4.14ZM162.86,104.93h4.14v4.14h-4.14ZM47.00,109.07h4.14v4.14h-4.14ZM55.28,109.07h4.14v4.14h-4.14ZM59.41,109.07h4.14v4.14h-4.14ZM63.55,109.07h4.14v4.14h-4.14ZM75.97,109.07h4.14v4.14h-4.14ZM92.52,109.07h4.14v4.14h-4.14ZM104.93,109.07h4.14v4.14h-4.14ZM109.07,109.07h4.14v4.14h-4.14ZM113.21,109.07h4.14v4.14h-4.14ZM117.34,109.07h4.14v4.14h-4.14ZM121.48,109.07h4.14v4.14h-4.14ZM125.62,109.07h4.14v4.14h-4.14ZM133.90,109.07h4.14v4.14h-4.14ZM138.03,109.07h4.14v4.14h-4.14ZM142.17,109.07h4.14v4.14h-4.14ZM158.72,109.07h4.14v4.14h-4.14ZM162.86,109.07h4.14v4.14h-4.14ZM51.14,113.21h4.14v4.14h-4.14ZM55.28,113.21h4.14v4.14h-4.14ZM63.55,113.21h4.14v4.14h-4.14ZM67.69,113.21h4.14v4.14h-4.14ZM71.83,113.21h4.14v4.14h-4.14ZM75.97,113.21h4.14v4.14h-4.14ZM80.10,113.21h4.14v4.14h-4.14ZM88.38,113.21h4.14v4.14h-4.14ZM96.66,113.21h4.14v4.14h-4.14ZM100.79,113.21h4.14v4.14h-4.14ZM104.93,113.21h4.14v4.14h-4.14ZM109.07,113.21h4.14v4.14h-4.14ZM113.21,113.21h4.14v4.14h-4.14ZM117.34,113.21h4.14v4.14h-4.14ZM125.62,113.21h4.14v4.14h-4.14ZM133.90,113.21h4.14v4.14h-4.14ZM158.72,113.21h4.14v4.14h-4.14ZM47.00,117.34h4.14v4.14h-4.14ZM55.28,117.34h4.14v4.14h-4.14ZM67.69,117.34h4.14v4.14h-4.14ZM75.97,117.34h4.14v4.14h-4.14ZM84.24,117.34h4.14v4.14h-4.14ZM92.52,117.34h4.14v4.14h-4.14ZM109.07,117.34h4.14v4.14h-4.14ZM129.76,117.34h4.14v4.14h-4.14ZM138.03,117.34h4.14v4.14h-4.14ZM142.17,117.34h4.14v4.14h-4.14ZM146.31,117.34h4.14v4.14h-4.14ZM150.45,117.34h4.14v4.14h-4.14ZM158.72,117.34h4.14v4.14h-4.14ZM162.86,117.34h4.14v4.14h-4.14ZM55.28,121.48h4.14v4.14h-4.14ZM59.41,121.48h4.14v4.14h-4.14ZM67.69,121.48h4.14v4.14h-4.14ZM71.83,121.48h4.14v4.14h-4.14ZM84.24,121.48h4.14v4.14h-4.14ZM100.79,121.48h4.14v4.14h-4.14ZM104.93,121.48h4.14v4.14h-4.14ZM109.07,121.48h4.14v4.14h-4.14ZM113.21,121.48h4.14v4.14h-4.14ZM121.48,121.48h4.14v4.14h-4.14ZM146.31,121.48h4.14v4.14h-4.14ZM154.59,121.48h4.14v4.14h-4.14ZM162.86,121.48h4.14v4.14h-4.14ZM80.10,125.62h4.14v4.14h-4.14ZM100.79,125.62h4.14v4.14h-4.14ZM109.07,125.62h4.14v4.14h-4.14ZM117.34,125.62h4.14v4.14h-4.14ZM121.48,125.62h4.14v4.14h-4.14ZM125.62,125.62h4.14v4.14h-4.14ZM146.31,125.62h4.14v4.14h-4.14ZM158.72,125.62h4.14v4.14h-4.14ZM162.86,125.62h4.14v4.14h-4.14ZM47.00,129.76h4.14v4.14h-4.14ZM51.14,129.76h4.14v4.14h-4.14ZM67.69,129.76h4.14v4.14h-4.14ZM71.83,129.76h4.14v4.14h-4.14ZM80.10,129.76h4.14v4.14h-4.14ZM84.24,129.76h4.14v4.14h-4.14ZM88.38,129.76h4.14v4.14h-4.14ZM92.52,129.76h4.14v4.14h-4.14ZM96.66,129.76h4.14v4.14h-4.14ZM100.79,129.76h4.14v4.14h-4.14ZM113.21,129.76h4.14v4.14h-4.14ZM117.34,129.76h4.14v4.14h-4.14ZM129.76,129.76h4.14v4.14h-4.14ZM133.90,129.76h4.14v4.14h-4.14ZM138.03,129.76h4.14v4.14h-4.14ZM142.17,129.76h4.14v4.14h-4.14ZM146.31,129.76h4.14v4.14h-4.14ZM150.45,129.76h4.14v4.14h-4.14ZM162.86,129.76h4.14v4.14h-4.14ZM80.10,133.90h4.14v4.14h-4.14ZM84.24,133.90h4.14v4.14h-4.14ZM96.66,133.90h4.14v4.14h-4.14ZM100.79,133.90h4.14v4.14h-4.14ZM104.93,133.90h4.14v4.14h-4.14ZM109.07,133.90h4.14v4.14h-4.14ZM117.34,133.90h4.14v4.14h-4.14ZM121.48,133.90h4.14v4.14h-4.14ZM129.76,133.90h4.14v4.14h-4.14ZM146.31,133.90h4.14v4.14h-4.14ZM162.86,133.90h4.14v4.14h-4.14ZM47.00,138.03h4.14v4.14h-4.14ZM51.14,138.03h4.14v4.14h-4.14ZM55.28,138.03h4.14v4.14h-4.14ZM59.41,138.03h4.14v4.14h-4.14ZM63.55,138.03h4.14v4.14h-4.14ZM67.69,138.03h4.14v4.14h-4.14ZM71.83,138.03h4.14v4.14h-4.14ZM80.10,138.03h4.14v4.14h-4.14ZM92.52,138.03h4.14v4.14h-4.14ZM109.07,138.03h4.14v4.14h-4.14ZM117.34,138.03h4.14v4.14h-4.14ZM121.48,138.03h4.14v4.14h-4.14ZM125.62,138.03h4.14v4.14h-4.14ZM129.76,138.03h4.14v4.14h-4.14ZM138.03,138.03h4.14v4.14h-4.14ZM146.31,138.03h4.14v4.14h-4.14ZM150.45,138.03h4.14v4.14h-4.14ZM154.59,138.03h4.14v4.14h-4.14ZM162.86,138.03h4.14v4.14h-4.14ZM47.00,142.17h4.14v4.14h-4.14ZM71.83,142.17h4.14v4.14h-4.14ZM88.38,142.17h4.14v4.14h-4.14ZM92.52,142.17h4.14v4.14h-4.14ZM96.66,142.17h4.14v4.14h-4.14ZM104.93,142.17h4.14v4.14h-4.14ZM113.21,142.17h4.14v4.14h-4.14ZM117.34,142.17h4.14v4.14h-4.14ZM129.76,142.17h4.14v4.14h-4.14ZM146.31,142.17h4.14v4.14h-4.14ZM158.72,142.17h4.14v4.14h-4.14ZM162.86,142.17h4.14v4.14h-4.14ZM47.00,146.31h4.14v4.14h-4.14ZM55.28,146.31h4.14v4.14h-4.14ZM59.41,146.31h4.14v4.14h-4.14ZM63.55,146.31h4.14v4.14h-4.14ZM71.83,146.31h4.14v4.14h-4.14ZM80.10,146.31h4.14v4.14h-4.14ZM84.24,146.31h4.14v4.14h-4.14ZM92.52,146.31h4.14v4.14h-4.14ZM96.66,146.31h4.14v4.14h-4.14ZM100.79,146.31h4.14v4.14h-4.14ZM104.93,146.31h4.14v4.14h-4.14ZM117.34,146.31h4.14v4.14h-4.14ZM125.62,146.31h4.14v4.14h-4.14ZM129.76,146.31h4.14v4.14h-4.14ZM133.90,146.31h4.14v4.14h-4.14ZM138.03,146.31h4.14v4.14h-4.14ZM142.17,146.31h4.14v4.14h-4.14ZM146.31,146.31h4.14v4.14h-4.14ZM150.45,146.31h4.14v4.14h-4.14ZM158.72,146.31h4.14v4.14h-4.14ZM47.00,150.45h4.14v4.14h-4.14ZM55.28,150.45h4.14v4.14h-4.14ZM59.41,150.45h4.14v4.14h-4.14ZM63.55,150.45h4.14v4.14h-4.14ZM71.83,150.45h4.14v4.14h-4.14ZM92.52,150.45h4.14v4.14h-4.14ZM96.66,150.45h4.14v4.14h-4.14ZM100.79,150.45h4.14v4.14h-4.14ZM109.07,150.45h4.14v4.14h-4.14ZM113.21,150.45h4.14v4.14h-4.14ZM117.34,150.45h4.14v4.14h-4.14ZM121.48,150.45h4.14v4.14h-4.14ZM125.62,150.45h4.14v4.14h-4.14ZM129.76,150.45h4.14v4.14h-4.14ZM133.90,150.45h4.14v4.14h-4.14ZM162.86,150.45h4.14v4.14h-4.14ZM47.00,154.59h4.14v4.14h-4.14ZM55.28,154.59h4.14v4.14h-4.14ZM59.41,154.59h4.14v4.14h-4.14ZM63.55,154.59h4.14v4.14h-4.14ZM71.83,154.59h4.14v4.14h-4.14ZM84.24,154.59h4.14v4.14h-4.14ZM88.38,154.59h4.14v4.14h-4.14ZM96.66,154.59h4.14v4.14h-4.14ZM104.93,154.59h4.14v4.14h-4.14ZM109.07,154.59h4.14v4.14h-4.14ZM117.34,154.59h4.14v4.14h-4.14ZM125.62,154.59h4.14v4.14h-4.14ZM150.45,154.59h4.14v4.14h-4.14ZM154.59,154.59h4.14v4.14h-4.14ZM158.72,154.59h4.14v4.14h-4.14ZM162.86,154.59h4.14v4.14h-4.14ZM47.00,158.72h4.14v4.14h-4.14ZM71.83,158.72h4.14v4.14h-4.14ZM84.24,158.72h4.14v4.14h-4.14ZM100.79,158.72h4.14v4.14h-4.14ZM104.93,158.72h4.14v4.14h-4.14ZM109.07,158.72h4.14v4.14h-4.14ZM113.21,158.72h4.14v4.14h-4.14ZM117.34,158.72h4.14v4.14h-4.14ZM121.48,158.72h4.14v4.14h-4.14ZM125.62,158.72h4.14v4.14h-4.14ZM129.76,158.72h4.14v4.14h-4.14ZM133.90,158.72h4.14v4.14h-4.14ZM138.03,158.72h4.14v4.14h-4.14ZM142.17,158.72h4.14v4.14h-4.14ZM150.45,158.72h4.14v4.14h-4.14ZM158.72,158.72h4.14v4.14h-4.14ZM162.86,158.72h4.14v4.14h-4.14ZM47.00,162.86h4.14v4.14h-4.14ZM51.14,162.86h4.14v4.14h-4.14ZM55.28,162.86h4.14v4.14h-4.14ZM59.41,162.86h4.14v4.14h-4.14ZM63.55,162.86h4.14v4.14h-4.14ZM67.69,162.86h4.14v4.14h-4.14ZM71.83,162.86h4.14v4.14h-4.14ZM80.10,162.86h4.14v4.14h-4.14ZM84.24,162.86h4.14v4.14h-4.14ZM92.52,162.86h4.14v4.14h-4.14ZM96.66,162.86h4.14v4.14h-4.14ZM104.93,162.86h4.14v4.14h-4.14ZM109.07,162.86h4.14v4.14h-4.14ZM113.21,162.86h4.14v4.14h-4.14ZM117.34,162.86h4.14v4.14h-4.14ZM129.76,162.86h4.14v4.14h-4.14ZM133.90,162.86h4.14v4.14h-4.14ZM138.03,162.86h4.14v4.14h-4.14ZM142.17,162.86h4.14v4.14h-4.14ZM150.45,162.86h4.14v4.14h-4.14ZM158.72,162.86h4.14v4.14h-4.14Z" fill="black"/></g>
<g id="sticker-l8mea8ifwc"><path d="M214,107a87,87 0 1,0 174,0a87,87 0 1,0 -174,0Z" fill="white" stroke="black" stroke-width="0.5"/><path d="M241.00,47.00h4.14v4.14h-4.14ZM245.14,47.00h4.14v4.14h-4.14ZM249.28,47.00h4.14v4.14h-4.14ZM253.41,47.00h4.14v4.14h-4.14ZM257.55,47.00h4.14v4.14h-4.14ZM261.69,47.00h4.14v4.14h-4.14ZM265.83,47.00h4.14v4.14h-4.14ZM274.10,47.00h4.14v4.14h-4.14ZM278.24,47.00h4.14v4.14h-4.14ZM286.52,47.00h4.14v4.14h-4.14ZM294.79,47.00h4.14v4.14h-4.14ZM303.07,47.00h4.14v4.14h-4.14ZM311.34,47.00h4.14v4.14h-4.14ZM315.48,47.00h4.14v4.14h-4.14ZM319.62,47.00h4.14v4.14h-4.14ZM332.03,47.00h4.14v4.14h-4.14ZM336.17,47.00h4.14v4.14h-4.14ZM340.31,47.00h4.14v4.14h-4.14ZM344.45,47.00h4.14v4.14h-4.14ZM348.59,47.00h4.14v4.14h-4.14ZM352.72,47.00h4.14v4.14h-4.14ZM356.86,47.00h4.14v4.14h-4.14ZM241.00,51.14h4.14v4.14h-4.14ZM265.83,51.14h4.14v4.14h-4.14ZM274.10,51.14h4.14v4.14h-4.14ZM278.24,51.14h4.14v4.14h-4.14ZM282.38,51.14h4.14v4.14h-4.14ZM290.66,51.14h4.14v4.14h-4.14ZM294.79,51.14h4.14v4.14h-4.14ZM307.21,51.14h4.14v4.14h-4.14ZM315.48,51.14h4.14v4.14h-4.14ZM323.76,51.14h4.14v4.14h-4.14ZM332.03,51.14h4.14v4.14h-4.14ZM356.86,51.14h4.14v4.14h-4.14ZM241.00,55.28h4.14v4.14h-4.14ZM249.28,55.28h4.14v4.14h-4.14ZM253.41,55.28h4.14v4.14h-4.14ZM257.55,55.28h4.14v4.14h-4.14ZM265.83,55.28h4.14v4.14h-4.14ZM303.07,55.28h4.14v4.14h-4.14ZM307.21,55.28h4.14v4.14h-4.14ZM315.48,55.28h4.14v4.14h-4.14ZM319.62,55.28h4.14v4.14h-4.14ZM332.03,55.28h4.14v4.14h-4.14ZM340.31,55.28h4.14v4.14h-4.14ZM344.45,55.28h4.14v4.14h-4.14ZM348.59,55.28h4.14v4.14h-4.14ZM356.86,55.28h4.14v4.14h-4.14ZM241.00,59.41h4.14v4.14h-4.14ZM249.28,59.41h4.14v4.14h-4.14ZM253.41,59.41h4.14v4.14h-4.14ZM257.55,59.41h4.14v4.14h-4.14ZM265.83,59.41h4.14v4.14h-4.14ZM274.10,59.41h4.14v4.14h-4.14ZM278.24,59.41h4.14v4.14h-4.14ZM282.38,59.41h4.14v4.14h-4.14ZM286.52,59.41h4.14v4.14h-4.14ZM298.93,59.41h4.14v4.14h-4.14ZM303.07,59.41h4.14v4.14h-4.14ZM311.34,59.41h4.14v4.14h-4.14ZM323.76,59.41h4.14v4.14h-4.14ZM332.03,59.41h4.14v4.14h-4.14ZM340.31,59.41h4.14v4.14h-4.14ZM344.45,59.41h4.14v4.14h-4.14ZM348.59,59.41h4.14v4.14h-4.14ZM356.86,59.41h4.14v4.14h-4.14ZM241.00,63.55h4.14v4.14h-4.14ZM249.28,63.55h4.14v4.14h-4.14ZM253.41,63.55h4.14v4.14h-4.14ZM257.55,63.55h4.14v4.14h-4.14ZM265.83,63.55h4.14v4.14h-4.14ZM298.93,63.55h4.14v4.14h-4.14ZM303.07,63.55h4.14v4.14h-4.14ZM307.21,63.55h4.14v4.14h-4.14ZM311.34,63.55h4.14v4.14h-4.14ZM315.48,63.55h4.14v4.14h-4.14ZM319.62,63.55h4.14v4.14h-4.14ZM323.76,63.55h4.14v4.14h-4.14ZM332.03,63.55h4.14v4.14h-4.14ZM340.31,63.55h4.14v4.14h-4.14ZM344.45,63.55h4.14v4.14h-4.14ZM348.59,63.55h4.14v4.14h-4.14ZM356.86,63.55h4.14v4.14h-4.14ZM241.00,67.69h4.14v4.14h-4.14ZM265.83,67.69h4.14v4.14h-4.14ZM282.38,67.69h4.14v4.14h-4.14ZM286.52,67.69h4.14v4.14h-4.14ZM294.79,67.69h4.14v4.14h-4.14ZM319.62,67.69h4.14v4.14h-4.14ZM332.03,67.69h4.14v4.14h-4.14ZM356.86,67.69h4.14v4.14h-4.14ZM241.00,71.83h4.14v4.14h-4.14ZM245.14,71.83h4.14v4.14h-4.14ZM249.28,71.83h4.14v4.14h-4.14ZM253.41,71.83h4.14v4.14h-4.14ZM257.55,71.83h4.14v4.14h-4.14ZM261.69,71.83h4.14v4.14h-4.14ZM265.83,71.83h4.14v4.14h-4.14ZM274.10,71.83h4.14v4.14h-4.14ZM282.38,71.83h4.14v4.14h-4.14ZM290.66,71.83h4.14v4.14h-4.14ZM298.93,71.83h4.14v4.14h-4.14ZM307.21,71.83h4.14v4.14h-4.14ZM315.48,71.83h4.14v4.14h-4.14ZM323.76,71.83h4.14v4.14h-4.14ZM332.03,71.83h4.14v4.14h-4.14ZM336.17,71.83h4.14v4.14h-4.14ZM340.31,71.83h4.14v4.14h-4.14ZM344.45,71.83h4.14v4.14h-4.14ZM348.59,71.83h4.14v4.14h-4.14ZM352.72,71.83h4.14v4.14h-4.14ZM356.86,71.83h4.14v4.14h-4.14ZM274.10,75.97h4.14v4.14h-4.14ZM278.24,75.97h4.14v4.14h-4.14ZM282.38,75.97h4.14v4.14h-4.14ZM286.52,75.97h4.14v4.14h-4.14ZM303.07,75.97h4.14v4.14h-4.14ZM307.21,75.97h4.14v4.14h-4.14ZM311.34,75.97h4.14v4.14h-4.14ZM315.48,75.97h4.14v4.14h-4.14ZM323.76,75.97h4.14v4.14h-4.14ZM241.00,80.10h4.14v4.14h-4.14ZM249.28,80.10h4.14v4.14h-4.14ZM253.41,80.10h4.14v4.14h-4.14ZM261.69,80.10h4.14v4.14h-4.14ZM265.83,80.10h4.14v4.14h-4.14ZM269.97,80.10h4.14v4.14h-4.14ZM278.24,80.10h4.14v4.14h-4.14ZM290.66,80.10h4.14v4.14h-4.14ZM294.79,80.10h4.14v4.14h-4.14ZM311.34,80.10h4.14v4.14h-4.14ZM315.48,80.10h4.14v4.14h-4.14ZM319.62,80.10h4.14v4.14h-4.14ZM323.76,80.10h4.14v4.14h-4.14ZM332.03,80.10h4.14v4.14h-4.14ZM344.45,80.10h4.14v4.14h-4.14ZM352.72,80.10h4.14v4.14h-4.14ZM356.86,80.10h4.14v4.14h-4.14ZM241.00,84.24h4.14v4.14h-4.14ZM249.28,84.24h4.14v4.14h-4.14ZM253.41,84.24h4.14v4.14h-4.14ZM257.55,84.24h4.14v4.14h-4.14ZM269.97,84.24h4.14v4.14h-4.14ZM274.10,84.24h4.14v4.14h-4.14ZM286.52,84.24h4.14v4.14h-4.14ZM290.66,84.24h4.14v4.14h-4.14ZM294.79,84.24h4.14v4.14h-4.14ZM298.93,84.24h4.14v4.14h-4.14ZM307.21,84.24h4.14v4.14h-4.14ZM319.62,84.24h4.14v4.14h-4.14ZM327.90,84.24h4.14v4.14h-4.14ZM332.03,84.24h4.14v4.14h-4.14ZM336.17,84.24h4.14v4.14h-4.14ZM340.31,84.24h4.14v4.14h-4.14ZM356.86,84.24h4.14v4.14h-4.14ZM241.00,88.38h4.14v4.14h-4.14ZM245.14,88.38h4.14v4.14h-4.14ZM261.69,88.38h4.14v4.14h-4.14ZM265.83,88.38h4.14v4.14h-4.14ZM269.97,88.38h4.14v4.14h-4.14ZM274.10,88.38h4.14v4.14h-4.14ZM278.24,88.38h4.14v4.14h-4.14ZM294.79,88.38h4.14v4.14h-4.14ZM323.76,88.38h4.14v4.14h-4.14ZM327.90,88.38h4.14v4.14h-4.14ZM332.03,88.38h4.14v4.14h-4.14ZM348.59,88.38h4.14v4.14h-4.14ZM352.72,88.38h4.14v4.14h-4.14ZM241.00,92.52h4.14v4.14h-4.14ZM274.10,92.52h4.14v4.14h-4.14ZM282.38,92.52h4.14v4.14h-4.14ZM290.66,92.52h4.14v4.14h-4.14ZM303.07,92.52h4.14v4.14h-4.14ZM319.62,92.52h4.14v4.14h-4.14ZM332.03,92.52h4.14v4.14h-4.14ZM356.86,92.52h4.14v4.14h-4.14ZM241.00,96.66h4.14v4.14h-4.14ZM249.28,96.66h4.14v4.14h-4.14ZM257.55,96.66h4.14v4.14h-4.14ZM265.83,96.66h4.14v4.14h-4.14ZM274.10,96.66h4.14v4.14h-4.14ZM278.24,96.66h4.14v4.14h-4.14ZM286.52,96.66h4.14v4.14h-4.14ZM298.93,96.66h4.14v4.14h-4.14ZM303.07,96.66h4.14v4.14h-4.14ZM311.34,96.66h4.14v4.14h-4.14ZM315.48,96.66h4.14v4.14h-4.14ZM323.76,96.66h4.14v4.14h-4.14ZM344.45,96.66h4.14v4.14h-4.14ZM348.59,96.66h4.14v4.14h-4.14ZM245.14,100.79h4.14v4.14h-4.14ZM274.10,100.79h4.14v4.14h-4.14ZM278.24,100.79h4.14v4.14h-4.14ZM282.38,100.79h4.14v4.14h-4.14ZM290.66,100.79h4.14v4.14h-4.14ZM298.93,100.79h4.14v4.14h-4.14ZM303.07,100.79h4.14v4.14h-4.14ZM307.21,100.79h4.14v4.14h-4.14ZM319.62,100.79h4.14v4.14h-4.14ZM323.76,100.79h4.14v4.14h-4.14ZM332.03,100.79h4.14v4.14h-4.14ZM348.59,100.79h4.14v4.14h-4.14ZM352.72,100.79h4.14v4.14h-4.14ZM356.86,100.79h4.14v4.14h-4.14ZM245.14,104.93h4.14v4.14h-4.14ZM253.41,104.93h4.14v4.14h-4.14ZM265.83,104.93h4.14v4.14h-4.14ZM282.38,104.93h4.14v4.14h-4.14ZM286.52,104.93h4.14v4.14h-4.14ZM294.79,104.93h4.14v4.14h-4.14ZM311.34,104.93h4.14v4.14h-4.14ZM315.48,104.93h4.14v4.14h-4.14ZM319.62,104.93h4.14v4.14h-4.14ZM323.76,104.93h4.14v4.14h-4.14ZM336.17,104.93h4.14v4.14h-4.14ZM340.31,104.93h4.14v4.14h-4.14ZM348.59,104.93h4.14v4.14h-4.14ZM352.72,104.93h4.14v4.14h-4.14ZM356.86,104.93h4.14v4.14h-4.14ZM241.00,109.07h4.14v4.14h-4.14ZM245.14,109.07h4.14v4.14h-4.14ZM253.41,109.07h4.14v4.14h-4.14ZM257.55,109.07h4.14v4.14h-4.14ZM269.97,109.07h4.14v4.14h-4.14ZM282.38,109.07h4.14v4.14h-4.14ZM290.66,109.07h4.14v4.14h-4.14ZM298.93,109.07h4.14v4.14h-4.14ZM303.07,109.07h4.14v4.14h-4.14ZM319.62,109.07h4.14v4.14h-4.14ZM327.90,109.07h4.14v4.14h-4.14ZM340.31,109.07h4.14v4.14h-4.14ZM352.72,109.07h4.14v4.14h-4.14ZM245.14,113.21h4.14v4.14h-4.14ZM261.69,113.21h4.14v4.14h-4.14ZM265.83,113.21h4.14v4.14h-4.14ZM269.97,113.21h4.14v4.14h-4.14ZM278.24,113.21h4.14v4.14h-4.14ZM282.38,113.21h4.14v4.14h-4.14ZM290.66,113.21h4.14v4.14h-4.14ZM298.93,113.21h4.14v4.14h-4.14ZM303.07,113.21h4.14v4.14h-4.14ZM315.48,113.21h4.14v4.14h-4.14ZM327.90,113.21h4.14v4.14h-4.14ZM336.17,113.21h4.14v4.14h-4.14ZM340.31,113.21h4.14v4.14h-4.14ZM344.45,113.21h4.14v4.14h-4.14ZM352.72,113.21h4.14v4.14h-4.14ZM253.41,117.34h4.14v4.14h-4.14ZM257.55,117.34h4.14v4.14h-4.14ZM269.97,117.34h4.14v4.14h-4.14ZM274.10,117.34h4.14v4.14h-4.14ZM278.24,117.34h4.14v4.14h-4.14ZM286.52,117.34h4.14v4.14h-4.14ZM298.93,117.34h4.14v4.14h-4.14ZM303.07,117.34h4.14v4.14h-4.14ZM311.34,117.34h4.14v4.14h-4.14ZM336.17,117.34h4.14v4.14h-4.14ZM344.45,117.34h4.14v4.14h-4.14ZM348.59,117.34h4.14v4.14h-4.14ZM352.72,117.34h4.14v4.14h-4.14ZM241.00,121.48h4.14v4.14h-4.14ZM261.69,121.48h4.14v4.14h-4.14ZM265.83,121.48h4.14v4.14h-4.14ZM278.24,121.48h4.14v4.14h-4.14ZM282.38,121.48h4.14v4.14h-4.14ZM294.79,121.48h4.14v4.14h-4.14ZM298.93,121.48h4.14v4.14h-4.14ZM303.07,121.48h4.14v4.14h-4.14ZM332.03,121.48h4.14v4.14h-4.14ZM336.17,121.48h4.14v4.14h-4.14ZM348.59,121.48h4.14v4.14h-4.14ZM249.28,125.62h4.14v4.14h-4.14ZM257.55,125.62h4.14v4.14h-4.14ZM261.69,125.62h4.14v4.14h-4.14ZM274.10,125.62h4.14v4.14h-4.14ZM294.79,125.62h4.14v4.14h-4.14ZM298.93,125.62h4.14v4.14h-4.14ZM311.34,125.62h4.14v4.14h-4.14ZM319.62,125.62h4.14v4.14h-4.14ZM323.76,125.62h4.14v4.14h-4.14ZM327.90,125.62h4.14v4.14h-4.14ZM332.03,125.62h4.14v4.14h-4.14ZM340.31,125.62h4.14v4.14h-4.14ZM348.59,125.62h4.14v4.14h-4.14ZM245.14,129.76h4.14v4.14h-4.14ZM249.28,129.76h4.14v4.14h-4.14ZM253.41,129.76h4.14v4.14h-4.14ZM257.55,129.76h4.14v4.14h-4.14ZM261.69,129.76h4.14v4.14h-4.14ZM265.83,129.76h4.14v4.14h-4.14ZM269.97,129.76h4.14v4.14h-4.14ZM274.10,129.76h4.14v4.14h-4.14ZM282.38,129.76h4.14v4.14h-4.14ZM290.66,129.76h4.14v4.14h-4.14ZM294.79,129.76h4.14v4.14h-4.14ZM298.93,129.76h4.14v4.14h-4.14ZM303.07,129.76h4.14v4.14h-4.14ZM311.34,129.76h4.14v4.14h-4.14ZM323.76,129.76h4.14v4.14h-4.14ZM327.90,129.76h4.14v4.14h-4.14ZM332.03,129.76h4.14v4.14h-4.14ZM336.17,129.76h4.14v4.14h-4.14ZM340.31,129.76h4.14v4.14h-4.14ZM344.45,129.76h4.14v4.14h-4.14ZM348.59,129.76h4.14v4.14h-4.14ZM274.10,133.90h4.14v4.14h-4.14ZM278.24,133.90h4.14v4.14h-4.14ZM290.66,133.90h4.14v4.14h-4.14ZM311.34,133.90h4.14v4.14h-4.14ZM319.62,133.90h4.14v4.14h-4.14ZM323.76,133.90h4.14v4.14h-4.14ZM340.31,133.90h4.14v4.14h-4.14ZM344.45,133.90h4.14v4.14h-4.14ZM348.59,133.90h4.14v4.14h-4.14ZM352.72,133.90h4.14v4.14h-4.14ZM356.86,133.90h4.14v4.14h-4.14ZM241.00,138.03h4.14v4.14h-4.14ZM245.14,138.03h4.14v4.14h-4.14ZM249.28,138.03h4.14v4.14h-4.14ZM253.41,138.03h4.14v4.14h-4.14ZM257.55,138.03h4.14v4.14h-4.14ZM261.69,138.03h4.14v4.14h-4.14ZM265.83,138.03h4.14v4.14h-4.14ZM274.10,138.03h4.14v4.14h-4.14ZM278.24,138.03h4.14v4.14h-4.14ZM282.38,138.03h4.14v4.14h-4.14ZM298.93,138.03h4.14v4.14h-4.14ZM307.21,138.03h4.14v4.14h-4.14ZM311.34,138.03h4.14v4.14h-4.14ZM319.62,138.03h4.14v4.14h-4.14ZM323.76,138.03h4.14v4.14h-4.14ZM332.03,138.03h4.14v4.14h-4.14ZM340.31,138.03h4.14v4.14h-4.14ZM344.45,138.03h4.14v4.14h-4.14ZM352.72,138.03h4.14v4.14h-4.14ZM241.00,142.17h4.14v4.14h-4.14ZM265.83,142.17h4.14v4.14h-4.14ZM274.10,142.17h4.14v4.14h-4.14ZM278.24,142.17h4.14v4.14h-4.14ZM286.52,142.17h4.14v4.14h-4.14ZM294.79,142.17h4.14v4.14h-4.14ZM298.93,142.17h4.14v4.14h-4.14ZM307.21,142.17h4.14v4.14h-4.14ZM319.62,142.17h4.14v4.14h-4.14ZM323.76,142.17h4.14v4.14h-4.14ZM340.31,142.17h4.14v4.14h-4.14ZM344.45,142.17h4.14v4.14h-4.14ZM356.86,142.17h4.14v4.14h-4.14ZM241.00,146.31h4.14v4.14h-4.14ZM249.28,146.31h4.14v4.14h-4.14ZM253.41,146.31h4.14v4.14h-4.14ZM257.55,146.31h4.14v4.14h-4.14ZM265.83,146.31h4.14v4.14h-4.14ZM278.24,146.31h4.14v4.14h-4.14ZM282.38,146.31h4.14v4.14h-4.14ZM303.07,146.31h4.14v4.14h-4.14ZM311.34,146.31h4.14v4.14h-4.14ZM323.76,146.31h4.14v4.14h-4.14ZM327.90,146.31h4.14v4.14h-4.14ZM332.03,146.31h4.14v4.14h-4.14ZM336.17,146.31h4.14v4.14h-4.14ZM340.31,146.31h4.14v4.14h-4.14ZM348.59,146.31h4.14v4.14h-4.14ZM241.00,150.45h4.14v4.14h-4.14ZM249.28,150.45h4.14v4.14h-4.14ZM253.41,150.45h4.14v4.14h-4.14ZM257.55,150.45h4.14v4.14h-4.14ZM265.83,150.45h4.14v4.14h-4.14ZM274.10,150.45h4.14v4.14h-4.14ZM282.38,150.45h4.14v4.14h-4.14ZM290.66,150.45h4.14v4.14h-4.14ZM303.07,150.45h4.14v4.14h-4.14ZM307.21,150.45h4.14v4.14h-4.14ZM323.76,150.45h4.14v4.14h-4.14ZM327.90,150.45h4.14v4.14h-4.14ZM336.17,150.45h4.14v4.14h-4.14ZM340.31,150.45h4.14v4.14h-4.14ZM344.45,150.45h4.14v4.14h-4.14ZM356.86,150.45h4.14v4.14h-4.14ZM241.00,154.59h4.14v4.14h-4.14ZM249.28,154.59h4.14v4.14h-4.14ZM253.41,154.59h4.14v4.14h-4.14ZM257.55,154.59h4.14v4.14h-4.14ZM265.83,154.59h4.14v4.14h-4.14ZM274.10,154.59h4.14v4.14h-4.14ZM278.24,154.59h4.14v4.14h-4.14ZM286.52,154.59h4.14v4.14h-4.14ZM290.66,154.59h4.14v4.14h-4.14ZM315.48,154.59h4.14v4.14h-4.14ZM327.90,154.59h4.14v4.14h-4.14ZM336.17,154.59h4.14v4.14h-4.14ZM348.59,154.59h4.14v4.14h-4.14ZM356.86,154.59h4.14v4.14h-4.14ZM241.00,158.72h4.14v4.14h-4.14ZM265.83,158.72h4.14v4.14h-4.14ZM278.24,158.72h4.14v4.14h-4.14ZM294.79,158.72h4.14v4.14h-4.14ZM303.07,158.72h4.14v4.14h-4.14ZM307.21,158.72h4.14v4.14h-4.14ZM319.62,158.72h4.14v4.14h-4.14ZM323.76,158.72h4.14v4.14h-4.14ZM327.90,158.72h4.14v4.14h-4.14ZM340.31,158.72h4.14v4.14h-4.14ZM344.45,158.72h4.14v4.14h-4.14ZM352.72,158.72h4.14v4.14h-4.14ZM241.00,162.86h4.14v4.14h-4.14ZM245.14,162.86h4.14v4.14h-4.14ZM249.28,162.86h4.14v4.14h-4.14ZM253.41,162.86h4.14v4.14h-4.14ZM257.55,162.86h4.14v4.14h-4.14ZM261.69,162.86h4.14v4.14h-4.14ZM265.83,162.86h4.14v4.14h-4.14ZM274.10,162.86h4.14v4.14h-4.14ZM278.24,162.86h4.14v4.14h-4.14ZM290.66,162.86h4.14v4.14h-4.14ZM315.48,162.86h4.14v4.14h-4.14ZM319.62,162.86h4.14v4.14h-4.14ZM323.76,162.86h4.14v4.14h-4.14ZM327.90,162.86h4.14v4.14h-4.14ZM332.03,162.86h4.14v4.14h-4.14ZM340.31,162.86h4.14v4.14h-4.14ZM352.72,162.86h4.14v4.14h-4.14Z" fill="black"/></g>
<g id="sticker-ss1x185fp0"><path d="M408,107a87,87 0 1,0 174,0a87,87 0 1,0 -174,0Z" fill="white" stroke="black" stroke-width="0.5"/><path d="M435.00,47.00h4.14v4.14h-4.14ZM439.14,47.00h4.14v4.14h-4.14ZM443.28,47.00h4.14v4.14h-4.14ZM447.41,47.00h4.14v4.14h-4.14ZM451.55,47.00h4.14v4.14h-4.14ZM455.69,47.00h4.14v4.14h-4.14ZM459.83,47.00h4.14v4.14h-4.14ZM468.10,47.00h4.14v4.14h-4.14ZM476.38,47.00h4.14v4.14h-4.14ZM480.52,47.00h4.14v4.14h-4.14ZM484.66,47.00h4.14v4.14h-4.14ZM492.93,47.00h4.14v4.14h-4.14ZM505.34,47.00h4.14v4.14h-4.14ZM509.48,47.00h4.14v4.14h-4.14ZM517.76,47.00h4.14v4.14h-4.14ZM526.03,47.00h4.14v4.14h-4.14ZM530.17,47.00h4.14v4.14h-4.14ZM534.31,47.00h4.14v4.14h-4.14ZM538.45,47.00h4.14v4.14h-4.14ZM542.59,47.00h4.14v4.14h-4.14ZM546.72,47.00h4.14v4.14h-4.14ZM550.86,47.00h4.14v4.14h-4.14ZM435.00,51.14h4.14v4.14h-4.14ZM459.83,51.14h4.14v4.14h-4.14ZM476.38,51.14h4.14v4.14h-4.14ZM480.52,51.14h4.14v4.14h-4.14ZM505.34,51.14h4.14v4.14h-4.14ZM513.62,51.14h4.14v4.14h-4.14ZM517.76,51.14h4.14v4.14h-4.14ZM526.03,51.14h4.14v4.14h-4.14ZM550.86,51.14h4.14v4.14h-4.14ZM435.00,55.28h4.14v4.14h-4.14ZM443.28,55.28h4.14v4.14h-4.14ZM447.41,55.28h4.14v4.14h-4.14ZM451.55,55.28h4.14v4.14h-4.14ZM459.83,55.28h4.14v4.14h-4.14ZM472.24,55.28h4.14v4.14h-4.14ZM476.38,55.28h4.14v4.14h-4.14ZM480.52,55.28h4.14v4.14h-4.14ZM484.66,55.28h4.14v4.14h-4.14ZM488.79,55.28h4.14v4.14h-4.14ZM497.07,55.28h4.14v4.14h-4.14ZM501.21,55.28h4.14v4.14h-4.14ZM505.34,55.28h4.14v4.14h-4.14ZM509.48,55.28h4.14v4.14h-4.14ZM526.03,55.28h4.14v4.14h-4.14ZM534.31,55.28h4.14v4.14h-4.14ZM538.45,55.28h4.14v4.14h-4.14ZM542.59,55.28h4.14v4.14h-4.14ZM550.86,55.28h4.14v4.14h-4.14ZM435.00,59.41h4.14v4.14h-4.14ZM443.28,59.41h4.14v4.14h-4.14ZM447.41,59.41h4.14v4.14h-4.14ZM451.55,59.41h4.14v4.14h-4.14ZM459.83,59.41h4.14v4.14h-4.14ZM468.10,59.41h4.14v4.14h-4.14ZM492.93,59.41h4.14v4.14h-4.14ZM497.07,59.41h4.14v4.14h-4.14ZM509.48,59.41h4.14v4.14h-4.14ZM517.76,59.41h4.14v4.14h-4.14ZM526.03,59.41h4.14v4.14h-4.14ZM534.31,59.41h4.14v4.14h-4.14ZM538.45,59.41h4.14v4.14h-4.14ZM542.59,59.41h4.14v4.14h-4.14ZM550.86,59.41h4.14v4.14h-4.14ZM435.00,63.55h4.14v4.14h-4.14ZM443.28,63.55h4.14v4.14h-4.14ZM447.41,63.55h4.14v4.14h-4.14ZM451.55,63.55h4.14v4.14h-4.14ZM459.83,63.55h4.14v4.14h-4.14ZM468.10,63.55h4.14v4.14h-4.14ZM472.24,63.55h4.14v4.14h-4.14ZM484.66,63.55h4.14v4.14h-4.14ZM488.79,63.55h4.14v4.14h-4.14ZM492.93,63.55h4.14v4.14h-4.14ZM497.07,63.55h4.14v4.14h-4.14ZM517.76,63.55h4.14v4.14h-4.14ZM526.03,63.55h4.14v4.14h-4.14ZM534.31,63.55h4.14v4.14h-4.14ZM538.45,63.55h4.14v4.14h-4.14ZM542.59,63.55h4.14v4.14h-4.14ZM550.86,63.55h4.14v4.14h-4.14ZM435.00,67.69h4.14v4.14h-4.14ZM459.83,67.69h4.14v4.14h-4.14ZM468.10,67.69h4.14v4.14h-4.14ZM476.38,67.69h4.14v4.14h-4.14ZM480.52,67.69h4.14v4.14h-4.14ZM488.79,67.69h4.14v4.14h-4.14ZM492.93,67.69h4.14v4.14h-4.14ZM509.48,67.69h4.14v4.14h-4.14ZM513.62,67.69h4.14v4.14h-4.14ZM517.76,67.69h4.14v4.14h-4.14ZM526.03,67.69h4.14v4.14h-4.14ZM550.86,67.69h4.14v4.14h-4.14ZM435.00,71.83h4.14v4.14h-4.14ZM439.14,71.83h4.14v4.14h-4.14ZM443.28,71.83h4.14v4.14h-4.14ZM447.41,71.83h4.14v4.14h-4.14ZM451.55,71.83h4.14v4.14h-4.14ZM455.69,71.83h4.14v4.14h-4.14ZM459.83,71.83h4.14v4.14h-4.14ZM468.10,71.83h4.14v4.14h-4.14ZM476.38,71.83h4.14v4.14h-4.14ZM484.66,71.83h4.14v4.14h-4.14ZM492.93,71.83h4.14v4.14h-4.14ZM501.21,71.83h4.14v4.14h-4.14ZM509.48,71.83h4.14v4.14h-4.14ZM517.76,71.83h4.14v4.14h-4.14ZM526.03,71.83h4.14v4.14h-4.14ZM530.17,71.83h4.14v4.14h-4.14ZM534.31,71.83h4.14v4.14h-4.14ZM538.45,71.83h4.14v4.14h-4.14ZM542.59,71.83h4.14v4.14h-4.14ZM546.72,71.83h4.14v4.14h-4.14ZM550.86,71.83h4.14v4.14h-4.14ZM468.10,75.97h4.14v4.14h-4.14ZM472.24,75.97h4.14v4.14h-4.14ZM484.66,75.97h4.14v4.14h-4.14ZM492.93,75.97h4.14v4.14h-4.14ZM497.07,75.97h4.14v4.14h-4.14ZM501.21,75.97h4.14v4.14h-4.14ZM505.34,75.97h4.14v4.14h-4.14ZM509.48,75.97h4.14v4.14h-4.14ZM435.00,80.10h4.14v4.14h-4.14ZM451.55,80.10h4.14v4.14h-4.14ZM459.83,80.10h4.14v4.14h-4.14ZM463.97,80.10h4.14v4.14h-4.14ZM468.10,80.10h4.14v4.14h-4.14ZM476.38,80.10h4.14v4.14h-4.14ZM480.52,80.10h4.14v4.14h-4.14ZM484.66,80.10h4.14v4.14h-4.14ZM488.79,80.10h4.14v4.14h-4.14ZM492.93,80.10h4.14v4.14h-4.14ZM501.21,80.10h4.14v4.14h-4.14ZM505.34,80.10h4.14v4.14h-4.14ZM513.62,80.10h4.14v4.14h-4.14ZM521.90,80.10h4.14v4.14h-4.14ZM526.03,80.10h4.14v4.14h-4.14ZM530.17,80.10h4.14v4.14h-4.14ZM534.31,80.10h4.14v4.14h-4.14ZM538.45,80.10h4.14v4.14h-4.14ZM550.86,80.10h4.14v4.14h-4.14ZM435.00,84.24h4.14v4.14h-4.14ZM443.28,84.24h4.14v4.14h-4.14ZM451.55,84.24h4.14v4.14h-4.14ZM463.97,84.24h4.14v4.14h-4.14ZM468.10,84.24h4.14v4.14h-4.14ZM472.24,84.24h4.14v4.14h-4.14ZM497.07,84.24h4.14v4.14h-4.14ZM501.21,84.24h4.14v4.14h-4.14ZM517.76,84.24h4.14v4.14h-4.14ZM526.03,84.24h4.14v4.14h-4.14ZM530.17,84.24h4.14v4.14h-4.14ZM534.31,84.24h4.14v4.14h-4.14ZM538.45,84.24h4.14v4.14h-4.14ZM542.59,84.24h4.14v4.14h-4.14ZM546.72,84.24h4.14v4.14h-4.14ZM550.86,84.24h4.14v4.14h-4.14ZM439.14,88.38h4.14v4.14h-4.14ZM443.28,88.38h4.14v4.14h-4.14ZM459.83,88.38h4.14v4.14h-4.14ZM468.10,88.38h4.14v4.14h-4.14ZM476.38,88.38h4.14v4.14h-4.14ZM488.79,88.38h4.14v4.14h-4.14ZM492.93,88.38h4.14v4.14h-4.14ZM497.07,88.38h4.14v4.14h-4.14ZM501.21,88.38h4.14v4.14h-4.14ZM550.86,88.38h4.14v4.14h-4.14ZM435.00,92.52h4.14v4.14h-4.14ZM439.14,92.52h4.14v4.14h-4.14ZM447.41,92.52h4.14v4.14h-4.14ZM451.55,92.52h4.14v4.14h-4.14ZM463.97,92.52h4.14v4.14h-4.14ZM472.24,92.52h4.14v4.14h-4.14ZM488.79,92.52h4.14v4.14h-4.14ZM505.34,92.52h4.14v4.14h-4.14ZM521.90,92.52h4.14v4.14h-4.14ZM526.03,92.52h4.14v4.14h-4.14ZM530.17,92.52h4.14v4.14h-4.14ZM538.45,92.52h4.14v4.14h-4.14ZM546.72,92.52h4.14v4.14h-4.14ZM550.86,92.52h4.14v4.14h-4.14ZM451.55,96.66h4.14v4.14h-4.14ZM459.83,96.66h4.14v4.14h-4.14ZM463.97,96.66h4.14v4.14h-4.14ZM468.10,96.66h4.14v4.14h-4.14ZM488.79,96.66h4.14v4.14h-4.14ZM505.34,96.66h4.14v4.14h-4.14ZM509.48,96.66h4.14v4.14h-4.14ZM513.62,96.66h4.14v4.14h-4.14ZM521.90,96.66h4.14v4.14h-4.14ZM546.72,96.66h4.14v4.14h-4.14ZM435.00,100.79h4.14v4.14h-4.14ZM443.28,100.79h4.14v4.14h-4.14ZM447.41,100.79h4.14v4.14h-4.14ZM463.97,100.79h4.14v4.14h-4.14ZM472.24,100.79h4.14v4.14h-4.14ZM480.52,100.79h4.14v4.14h-4.14ZM488.79,100.79h4.14v4.14h-4.14ZM492.93,100.79h4.14v4.14h-4.14ZM497.07,100.79h4.14v4.14h-4.14ZM501.21,100.79h4.14v4.14h-4.14ZM505.34,100.79h4.14v4.14h-4.14ZM509.48,100.79h4.14v4.14h-4.14ZM517.76,100.79h4.14v4.14h-4.14ZM526.03,100.79h4.14v4.14h-4.14ZM530.17,100.79h4.14v4.14h-4.14ZM534.31,100.79h4.14v4.14h-4.14ZM538.45,100.79h4.14v4.14h-4.14ZM542.59,100.79h4.14v4.14h-4.14ZM546.72,100.79h4.14v4.14h-4.14ZM550.86,100.79h4.14v4.14h-4.14ZM435.00,104.93h4.14v4.14h-4.14ZM443.28,104.93h4.14v4.14h-4.14ZM459.83,104.93h4.14v4.14h-4.14ZM463.97,104.93h4.14v4.14h-4.14ZM476.38,104.93h4.14v4.14h-4.14ZM497.07,104.93h4.14v4.14h-4.14ZM509.48,104.93h4.14v4.14h-4.14ZM517.76,104.93h4.14v4.14h-4.14ZM521.90,104.93h4.14v4.14h-4.14ZM534.31,104.93h4.14v4.14h-4.14ZM538.45,104.93h4.14v4.14h-4.14ZM542.59,104.93h4.14v4.14h-4.14ZM550.86,104.93h4.14v4.14h-4.14ZM439.14,109.07h4.14v4.14h-4.14ZM443.28,109.07h4.14v4.14h-4.14ZM447.41,109.07h4.14v4.14h-4.14ZM455.69,109.07h4.14v4.14h-4.14ZM463.97,109.07h4.14v4.14h-4.14ZM468.10,109.07h4.14v4.14h-4.14ZM480.52,109.07h4.14v4.14h-4.14ZM492.93,109.07h4.14v4.14h-4.14ZM497.07,109.07h4.14v4.14h-4.14ZM505.34,109.07h4.14v4.14h-4.14ZM509.48,109.07h4.14v4.14h-4.14ZM513.62,109.07h4.14v4.14h-4.14ZM521.90,109.07h4.14v4.14h-4.14ZM526.03,109.07h4.14v4.14h-4.14ZM530.17,109.07h4.14v4.14h-4.14ZM546.72,109.07h4.14v4.14h-4.14ZM550.86,109.07h4.14v4.14h-4.14ZM439.14,113.21h4.14v4.14h-4.14ZM447.41,113.21h4.14v4.14h-4.14ZM459.83,113.21h4.14v4.14h-4.14ZM472.24,113.21h4.14v4.14h-4.14ZM488.79,113.21h4.14v4.14h-4.14ZM492.93,113.21h4.14v4.14h-4.14ZM501.21,113.21h4.14v4.14h-4.14ZM505.34,113.21h4.14v4.14h-4.14ZM513.62,113.21h4.14v4.14h-4.14ZM521.90,113.21h4.14v4.14h-4.14ZM546.72,113.21h4.14v4.14h-4.14ZM435.00,117.34h4.14v4.14h-4.14ZM439.14,117.34h4.14v4.14h-4.14ZM447.41,117.34h4.14v4.14h-4.14ZM451.55,117.34h4.14v4.14h-4.14ZM472.24,117.34h4.14v4.14h-4.14ZM476.38,117.34h4.14v4.14h-4.14ZM497.07,117.34h4.14v4.14h-4.14ZM517.76,117.34h4.14v4.14h-4.14ZM526.03,117.34h4.14v4.14h-4.14ZM530.17,117.34h4.14v4.14h-4.14ZM534.31,117.34h4.14v4.14h-4.14ZM538.45,117.34h4.14v4.14h-4.14ZM546.72,117.34h4.14v4.14h-4.14ZM550.86,117.34h4.14v4.14h-4.14ZM459.83,121.48h4.14v4.14h-4.14ZM472.24,121.48h4.14v4.14h-4.14ZM480.52,121.48h4.14v4.14h-4.14ZM484.66,121.48h4.14v4.14h-4.14ZM488.79,121.48h4.14v4.14h-4.14ZM492.93,121.48h4.14v4.14h-4.14ZM497.07,121.48h4.14v4.14h-4.14ZM501.21,121.48h4.14v4.14h-4.14ZM534.31,121.48h4.14v4.14h-4.14ZM542.59,121.48h4.14v4.14h-4.14ZM550.86,121.48h4.14v4.14h-4.14ZM447.41,125.62h4.14v4.14h-4.14ZM451.55,125.62h4.14v4.14h-4.14ZM472.24,125.62h4.14v4.14h-4.14ZM484.66,125.62h4.14v4.14h-4.14ZM488.79,125.62h4.14v4.14h-4.14ZM497.07,125.62h4.14v4.14h-4.14ZM501.21,125.62h4.14v4.14h-4.14ZM505.34,125.62h4.14v4.14h-4.14ZM509.48,125.62h4.14v4.14h-4.14ZM513.62,125.62h4.14v4.14h-4.14ZM534.31,125.62h4.14v4.14h-4.14ZM546.72,125.62h4.14v4.14h-4.14ZM550.86,125.62h4.14v4.14h-4.14ZM435.00,129.76h4.14v4.14h-4.14ZM439.14,129.76h4.14v4.14h-4.14ZM443.28,129.76h4.14v4.14h-4.14ZM447.41,129.76h4.14v4.14h-4.14ZM455.69,129.76h4.14v4.14h-4.14ZM459.83,129.76h4.14v4.14h-4.14ZM484.66,129.76h4.14v4.14h-4.14ZM488.79,129.76h4.14v4.14h-4.14ZM497.07,129.76h4.14v4.14h-4.14ZM501.21,129.76h4.14v4.14h-4.14ZM505.34,129.76h4.14v4.14h-4.14ZM517.76,129.76h4.14v4.14h-4.14ZM521.90,129.76h4.14v4.14h-4.14ZM526.03,129.76h4.14v4.14h-4.14ZM530.17,129.76h4.14v4.14h-4.14ZM534.31,129.76h4.14v4.14h-4.14ZM538.45,129.76h4.14v4.14h-4.14ZM550.86,129.76h4.14v4.14h-4.14ZM468.10,133.90h4.14v4.14h-4.14ZM476.38,133.90h4.14v4.14h-4.14ZM484.66,133.90h4.14v4.14h-4.14ZM488.79,133.90h4.14v4.14h-4.14ZM492.93,133.90h4.14v4.14h-4.14ZM497.07,133.90h4.14v4.14h-4.14ZM517.76,133.90h4.14v4.14h-4.14ZM534.31,133.90h4.14v4.14h-4.14ZM550.86,133.90h4.14v4.14h-4.14ZM435.00,138.03h4.14v4.14h-4.14ZM439.14,138.03h4.14v4.14h-4.14ZM443.28,138.03h4.14v4.14h-4.14ZM447.41,138.03h4.14v4.14h-4.14ZM451.55,138.03h4.14v4.14h-4.14ZM455.69,138.03h4.14v4.14h-4.14ZM459.83,138.03h4.14v4.14h-4.14ZM468.10,138.03h4.14v4.14h-4.14ZM476.38,138.03h4.14v4.14h-4.14ZM480.52,138.03h4.14v4.14h-4.14ZM497.07,138.03h4.14v4.14h-4.14ZM513.62,138.03h4.14v4.14h-4.14ZM517.76,138.03h4.14v4.14h-4.14ZM526.03,138.03h4.14v4.14h-4.14ZM534.31,138.03h4.14v4.14h-4.14ZM538.45,138.03h4.14v4.14h-4.14ZM542.59,138.03h4.14v4.14h-4.14ZM550.86,138.03h4.14v4.14h-4.14ZM435.00,142.17h4.14v4.14h-4.14ZM459.83,142.17h4.14v4.14h-4.14ZM472.24,142.17h4.14v4.14h-4.14ZM480.52,142.17h4.14v4.14h-4.14ZM484.66,142.17h4.14v4.14h-4.14ZM492.93,142.17h4.14v4.14h-4.14ZM497.07,142.17h4.14v4.14h-4.14ZM501.21,142.17h4.14v4.14h-4.14ZM505.34,142.17h4.14v4.14h-4.14ZM509.48,142.17h4.14v4.14h-4.14ZM517.76,142.17h4.14v4.14h-4.14ZM534.31,142.17h4.14v4.14h-4.14ZM546.72,142.17h4.14v4.14h-4.14ZM550.86,142.17h4.14v4.14h-4.14ZM435.00,146.31h4.14v4.14h-4.14ZM443.28,146.31h4.14v4.14h-4.14ZM447.41,146.31h4.14v4.14h-4.14ZM451.55,146.31h4.14v4.14h-4.14ZM459.83,146.31h4.14v4.14h-4.14ZM468.10,146.31h4.14v4.14h-4.14ZM484.66,146.31h4.14v4.14h-4.14ZM488.79,146.31h4.14v4.14h-4.14ZM492.93,146.31h4.14v4.14h-4.14ZM501.21,146.31h4.14v4.14h-4.14ZM505.34,146.31h4.14v4.14h-4.14ZM509.48,146.31h4.14v4.14h-4.14ZM513.62,146.31h4.14v4.14h-4.14ZM517.76,146.31h4.14v4.14h-4.14ZM521.90,146.31h4.14v4.14h-4.14ZM526.03,146.31h4.14v4.14h-4.14ZM530.17,146.31h4.14v4.14h-4.14ZM534.31,146.31h4.14v4.14h-4.14ZM538.45,146.31h4.14v4.14h-4.14ZM546.72,146.31h4.14v4.14h-4.14ZM435.00,150.45h4.14v4.14h-4.14ZM443.28,150.45h4.14v4.14h-4.14ZM447.41,150.45h4.14v4.14h-4.14ZM451.55,150.45h4.14v4.14h-4.14ZM459.83,150.45h4.14v4.14h-4.14ZM476.38,150.45h4.14v4.14h-4.14ZM480.52,150.45h4.14v4.14h-4.14ZM484.66,150.45h4.14v4.14h-4.14ZM488.79,150.45h4.14v4.14h-4.14ZM497.07,150.45h4.14v4.14h-4.14ZM513.62,150.45h4.14v4.14h-4.14ZM517.76,150.45h4.14v4.14h-4.14ZM521.90,150.45h4.14v4.14h-4.14ZM550.86,150.45h4.14v4.14h-4.14ZM435.00,154.59h4.14v4.14h-4.14ZM443.28,154.59h4.14v4.14h-4.14ZM447.41,154.59h4.14v4.14h-4.14ZM451.55,154.59h4.14v4.14h-4.14ZM459.83,154.59h4.14v4.14h-4.14ZM476.38,154.59h4.14v4.14h-4.14ZM488.79,154.59h4.14v4.14h-4.14ZM497.07,154.59h4.14v4.14h-4.14ZM501.21,154.59h4.14v4.14h-4.14ZM505.34,154.59h4.14v4.14h-4.14ZM513.62,154.59h4.14v4.14h-4.14ZM538.45,154.59h4.14v4.14h-4.14ZM542.59,154.59h4.14v4.14h-4.14ZM546.72,154.59h4.14v4.14h-4.14ZM550.86,154.59h4.14v4.14h-4.14ZM435.00,158.72h4.14v4.14h-4.14ZM459.83,158.72h4.14v4.14h-4.14ZM472.24,158.72h4.14v4.14h-4.14ZM480.52,158.72h4.14v4.14h-4.14ZM492.93,158.72h4.14v4.14h-4.14ZM497.07,158.72h4.14v4.14h-4.14ZM501.21,158.72h4.14v4.14h-4.14ZM505.34,158.72h4.14v4.14h-4.14ZM509.48,158.72h4.14v4.14h-4.14ZM513.62,158.72h4.14v4.14h-4.14ZM517.76,158.72h4.14v4.14h-4.14ZM521.90,158.72h4.14v4.14h-4.14ZM526.03,158.72h4.14v4.14h-4.14ZM530.17,158.72h4.14v4.14h-4.14ZM538.45,158.72h4.14v4.14h-4.14ZM546.72,158.72h4.14v4.14h-4.14ZM550.86,158.72h4.14v4.14h-4.14ZM435.00,162.86h4.14v4.14h-4.14ZM439.14,162.86h4.14v4.14h-4.14ZM443.28,162.86h4.14v4.14h-4.14ZM447.41,162.86h4.14v4.14h-4.14ZM451.55,162.86h4.14v4.14h-4.14ZM455.69,162.86h4.14v4.14h-4.14ZM459.83,162.86h4.14v4.14h-4.14ZM468.10,162.86h4.14v4.14h-4.14ZM480.52,162.86h4.14v4.14h-4.14ZM484.66,162.86h4.14v4.14h-4.14ZM497.07,162.86h4.14v4.14h-4.14ZM501.21,162.86h4.14v4.14h-4.14ZM505.34,162.86h4.14v4.14h-4.14ZM517.76,162.86h4.14v4.14h-4.14ZM521.90,162.86h4.14v4.14h-4.14ZM526.03,162.86h4.14v4.14h-4.14ZM530.17,162.86h4.14v4.14h-4.14ZM538.45,162.86h4.14v4.14h-4.14ZM546.72,162.86h4.14v4.14h-4.14Z" fill="black"/></g>
<g id="sticker-wpbgrq2c2n"><path d="M602,107a87,87 0 1,0 174,0a87,87 0 1,0 -174,0Z" fill="white" stroke="black" stroke-width="0.5"/><path d="M629.00,47.00h4.14v4.14h-4.14ZM633.14,47.00h4.14v4.14h-4.14ZM637.28,47.00h4.14v4.14h-4.14ZM641.41,47.00h4.14v4.14h-4.14ZM645.55,47.00h4.14v4.14h-4.14ZM649.69,47.00h4.14v4.14h-4.14ZM653.83,47.00h4.14v4.14h-4.14ZM662.10,47.00h4.14v4.14h-4.14ZM670.38,47.00h4.14v4.14h-4.14ZM678.66,47.00h4.14v4.14h-4.14ZM686.93,47.00h4.14v4.14h-4.14ZM699.34,47.00h4.14v4.14h-4.14ZM703.48,47.00h4.14v4.14h-4.14ZM711.76,47.00h4.14v4.14h-4.14ZM720.03,47.00h4.14v4.14h-4.14ZM724.17,47.00h4.14v4.14h-4.14ZM728.31,47.00h4.14v4.14h-4.14ZM732.45,47.00h4.14v4.14h-4.14ZM736.59,47.00h4.14v4.14h-4.14ZM740.72,47.00h4.14v4.14h-4.14ZM744.86,47.00h4.14v4.14h-4.14ZM629.00,51.14h4.14v4.14h-4.14ZM653.83,51.14h4.14v4.14h-4.14ZM666.24,51.14h4.14v4.14h-4.14ZM670.38,51.14h4.14v4.14h-4.14ZM699.34,51.14h4.14v4.14h-4.14ZM707.62,51.14h4.14v4.14h-4.14ZM711.76,51.14h4.14v4.14h-4.14ZM720.03,51.14h4.14v4.14h-4.14ZM744.86,51.14h4.14v4.14h-4.14ZM629.00,55.28h4.14v4.14h-4.14ZM637.28,55.28h4.14v4.14h-4.14ZM641.41,55.28h4.14v4.14h-4.14ZM645.55,55.28h4.14v4.14h-4.14ZM653.83,55.28h4.14v4.14h-4.14ZM666.24,55.28h4.14v4.14h-4.14ZM678.66,55.28h4.14v4.14h-4.14ZM682.79,55.28h4.14v4.14h-4.14ZM699.34,55.28h4.14v4.14h-4.14ZM703.48,55.28h4.14v4.14h-4.14ZM720.03,55.28h4.14v4.14h-4.14ZM728.31,55.28h4.14v4.14h-4.14ZM732.45,55.28h4.14v4.14h-4.14ZM736.59,55.28h4.14v4.14h-4.14ZM744.86,55.28h4.14v4.14h-4.14ZM629.00,59.41h4.14v4.14h-4.14ZM637.28,59.41h4.14v4.14h-4.14ZM641.41,59.41h4.14v4.14h-4.14ZM645.55,59.41h4.14v4.14h-4.14ZM653.83,59.41h4.14v4.14h-4.14ZM662.10,59.41h4.14v4.14h-4.14ZM670.38,59.41h4.14v4.14h-4.14ZM674.52,59.41h4.14v4.14h-4.14ZM678.66,59.41h4.14v4.14h-4.14ZM686.93,59.41h4.14v4.14h-4.14ZM695.21,59.41h4.14v4.14h-4.14ZM703.48,59.41h4.14v4.14h-4.14ZM711.76,59.41h4.14v4.14h-4.14ZM720.03,59.41h4.14v4.14h-4.14ZM728.31,59.41h4.14v4.14h-4.14ZM732.45,59.41h4.14v4.14h-4.14ZM736.59,59.41h4.14v4.14h-4.14ZM744.86,59.41h4.14v4.14h-4.14ZM629.00,63.55h4.14v4.14h-4.14ZM637.28,63.55h4.14v4.14h-4.14ZM641.41,63.55h4.14v4.14h-4.14ZM645.55,63.55h4.14v4.14h-4.14ZM653.83,63.55h4.14v4.14h-4.14ZM662.10,63.55h4.14v4.14h-4.14ZM682.79,63.55h4.14v4.14h-4.14ZM686.93,63.55h4.14v4.14h-4.14ZM691.07,63.55h4.14v4.14h-4.14ZM695.21,63.55h4.14v4.14h-4.14ZM711.76,63.55h4.14v4.14h-4.14ZM720.03,63.55h4.14v4.14h-4.14ZM728.31,63.55h4.14v4.14h-4.14ZM732.45,63.55h4.14v4.14h-4.14ZM736.59,63.55h4.14v4.14h-4.14ZM744.86,63.55h4.14v4.14h-4.14ZM629.00,67.69h4.14v4.14h-4.14ZM653.83,67.69h4.14v4.14h-4.14ZM662.10,67.69h4.14v4.14h-4.14ZM674.52,67.69h4.14v4.14h-4.14ZM682.79,67.69h4.14v4.14h-4.14ZM686.93,67.69h4.14v4.14h-4.14ZM703.48,67.69h4.14v4.14h-4.14ZM707.62,67.69h4.14v4.14h-4.14ZM711.76,67.69h4.14v4.14h-4.14ZM720.03,67.69h4.14v4.14h-4.14ZM744.86,67.69h4.14v4.14h-4.14ZM629.00,71.83h4.14v4.14h-4.14ZM633.14,71.83h4.14v4.14h-4.14ZM637.28,71.83h4.14v4.14h-4.14ZM641.41,71.83h4.14v4.14h-4.14ZM645.55,71.83h4.14v4.14h-4.14ZM649.69,71.83h4.14v4.14h-4.14ZM653.83,71.83h4.14v4.14h-4.14ZM662.10,71.83h4.14v4.14h-4.14ZM670.38,71.83h4.14v4.14h-4.14ZM678.66,71.83h4.14v4.14h-4.14ZM686.93,71.83h4.14v4.14h-4.14ZM695.21,71.83h4.14v4.14h-4.14ZM703.48,71.83h4.14v4.14h-4.14ZM711.76,71.83h4.14v4.14h-4.14ZM720.03,71.83h4.14v4.14h-4.14ZM724.17,71.83h4.14v4.14h-4.14ZM728.31,71.83h4.14v4.14h-4.14ZM732.45,71.83h4.14v4.14h-4.14ZM736.59,71.83h4.14v4.14h-4.14ZM740.72,71.83h4.14v4.14h-4.14ZM744.86,71.83h4.14v4.14h-4.14ZM662.10,75.97h4.14v4.14h-4.14ZM666.24,75.97h4.14v4.14h-4.14ZM678.66,75.97h4.14v4.14h-4.14ZM686.93,75.97h4.14v4.14h-4.14ZM695.21,75.97h4.14v4.14h-4.14ZM699.34,75.97h4.14v4.14h-4.14ZM703.48,75.97h4.14v4.14h-4.14ZM629.00,80.10h4.14v4.14h-4.14ZM645.55,80.10h4.14v4.14h-4.14ZM653.83,80.10h4.14v4.14h-4.14ZM657.97,80.10h4.14v4.14h-4.14ZM662.10,80.10h4.14v4.14h-4.14ZM670.38,80.10h4.14v4.14h-4.14ZM674.52,80.10h4.14v4.14h-4.14ZM682.79,80.10h4.14v4.14h-4.14ZM686.93,80.10h4.14v4.14h-4.14ZM695.21,80.10h4.14v4.14h-4.14ZM699.34,80.10h4.14v4.14h-4.14ZM707.62,80.10h4.14v4.14h-4.14ZM715.90,80.10h4.14v4.14h-4.14ZM720.03,80.10h4.14v4.14h-4.14ZM724.17,80.10h4.14v4.14h-4.14ZM728.31,80.10h4.14v4.14h-4.14ZM732.45,80.10h4.14v4.14h-4.14ZM744.86,80.10h4.14v4.14h-4.14ZM629.00,84.24h4.14v4.14h-4.14ZM637.28,84.24h4.14v4.14h-4.14ZM641.41,84.24h4.14v4.14h-4.14ZM649.69,84.24h4.14v4.14h-4.14ZM657.97,84.24h4.14v4.14h-4.14ZM662.10,84.24h4.14v4.14h-4.14ZM674.52,84.24h4.14v4.14h-4.14ZM678.66,84.24h4.14v4.14h-4.14ZM691.07,84.24h4.14v4.14h-4.14ZM711.76,84.24h4.14v4.14h-4.14ZM720.03,84.24h4.14v4.14h-4.14ZM724.17,84.24h4.14v4.14h-4.14ZM728.31,84.24h4.14v4.14h-4.14ZM732.45,84.24h4.14v4.14h-4.14ZM736.59,84.24h4.14v4.14h-4.14ZM740.72,84.24h4.14v4.14h-4.14ZM744.86,84.24h4.14v4.14h-4.14ZM629.00,88.38h4.14v4.14h-4.14ZM645.55,88.38h4.14v4.14h-4.14ZM653.83,88.38h4.14v4.14h-4.14ZM657.97,88.38h4.14v4.14h-4.14ZM662.10,88.38h4.14v4.14h-4.14ZM674.52,88.38h4.14v4.14h-4.14ZM678.66,88.38h4.14v4.14h-4.14ZM682.79,88.38h4.14v4.14h-4.14ZM686.93,88.38h4.14v4.14h-4.14ZM691.07,88.38h4.14v4.14h-4.14ZM744.86,88.38h4.14v4.14h-4.14ZM633.14,92.52h4.14v4.14h-4.14ZM641.41,92.52h4.14v4.14h-4.14ZM657.97,92.52h4.14v4.14h-4.14ZM670.38,92.52h4.14v4.14h-4.14ZM682.79,92.52h4.14v4.14h-4.14ZM695.21,92.52h4.14v4.14h-4.14ZM699.34,92.52h4.14v4.14h-4.14ZM715.90,92.52h4.14v4.14h-4.14ZM720.03,92.52h4.14v4.14h-4.14ZM724.17,92.52h4.14v4.14h-4.14ZM732.45,92.52h4.14v4.14h-4.14ZM740.72,92.52h4.14v4.14h-4.14ZM744.86,92.52h4.14v4.14h-4.14ZM629.00,96.66h4.14v4.14h-4.14ZM637.28,96.66h4.14v4.14h-4.14ZM641.41,96.66h4.14v4.14h-4.14ZM645.55,96.66h4.14v4.14h-4.14ZM649.69,96.66h4.14v4.14h-4.14ZM653.83,96.66h4.14v4.14h-4.14ZM657.97,96.66h4.14v4.14h-4.14ZM662.10,96.66h4.14v4.14h-4.14ZM670.38,96.66h4.14v4.14h-4.14ZM682.79,96.66h4.14v4.14h-4.14ZM699.34,96.66h4.14v4.14h-4.14ZM703.48,96.66h4.14v4.14h-4.14ZM707.62,96.66h4.14v4.14h-4.14ZM715.90,96.66h4.14v4.14h-4.14ZM740.72,96.66h4.14v4.14h-4.14ZM637.28,100.79h4.14v4.14h-4.14ZM641.41,100.79h4.14v4.14h-4.14ZM657.97,100.79h4.14v4.14h-4.14ZM666.24,100.79h4.14v4.14h-4.14ZM670.38,100.79h4.14v4.14h-4.14ZM682.79,100.79h4.14v4.14h-4.14ZM686.93,100.79h4.14v4.14h-4.14ZM691.07,100.79h4.14v4.14h-4.14ZM695.21,100.79h4.14v4.14h-4.14ZM699.34,100.79h4.14v4.14h-4.14ZM703.48,100.79h4.14v4.14h-4.14ZM711.76,100.79h4.14v4.14h-4.14ZM720.03,100.79h4.14v4.14h-4.14ZM724.17,100.79h4.14v4.14h-4.14ZM728.31,100.79h4.14v4.14h-4.14ZM732.45,100.79h4.14v4.14h-4.14ZM736.59,100.79h4.14v4.14h-4.14ZM740.72,100.79h4.14v4.14h-4.14ZM744.86,100.79h4.14v4.14h-4.14ZM629.00,104.93h4.14v4.14h-4.14ZM633.14,104.93h4.14v4.14h-4.14ZM637.28,104.93h4.14v4.14h-4.14ZM641.41,104.93h4.14v4.14h-4.14ZM645.55,104.93h4.14v4.14h-4.14ZM649.69,104.93h4.14v4.14h-4.14ZM653.83,104.93h4.14v4.14h-4.14ZM662.10,104.93h4.14v4.14h-4.14ZM678.66,104.93h4.14v4.14h-4.14ZM691.07,104.93h4.14v4.14h-4.14ZM695.21,104.93h4.14v4.14h-4.14ZM703.48,104.93h4.14v4.14h-4.14ZM711.76,104.93h4.14v4.14h-4.14ZM715.90,104.93h4.14v4.14h-4.14ZM728.31,104.93h4.14v4.14h-4.14ZM732.45,104.93h4.14v4.14h-4.14ZM736.59,104.93h4.14v4.14h-4.14ZM744.86,104.93h4.14v4.14h-4.14ZM629.00,109.07h4.14v4.14h-4.14ZM641.41,109.07h4.14v4.14h-4.14ZM645.55,109.07h4.14v4.14h-4.14ZM666.24,109.07h4.14v4.14h-4.14ZM670.38,109.07h4.14v4.14h-4.14ZM678.66,109.07h4.14v4.14h-4.14ZM686.93,109.07h4.14v4.14h-4.14ZM695.21,109.07h4.14v4.14h-4.14ZM699.34,109.07h4.14v4.14h-4.14ZM703.48,109.07h4.14v4.14h-4.14ZM707.62,109.07h4.14v4.14h-4.14ZM715.90,109.07h4.14v4.14h-4.14ZM720.03,109.07h4.14v4.14h-4.14ZM724.17,109.07h4.14v4.14h-4.14ZM740.72,109.07h4.14v4.14h-4.14ZM744.86,109.07h4.14v4.14h-4.14ZM637.28,113.21h4.14v4.14h-4.14ZM653.83,113.21h4.14v4.14h-4.14ZM657.97,113.21h4.14v4.14h-4.14ZM670.38,113.21h4.14v4.14h-4.14ZM674.52,113.21h4.14v4.14h-4.14ZM682.79,113.21h4.14v4.14h-4.14ZM686.93,113.21h4.14v4.14h-4.14ZM695.21,113.21h4.14v4.14h-4.14ZM699.34,113.21h4.14v4.14h-4.14ZM707.62,113.21h4.14v4.14h-4.14ZM715.90,113.21h4.14v4.14h-4.14ZM740.72,113.21h4.14v4.14h-4.14ZM629.00,117.34h4.14v4.14h-4.14ZM637.28,117.34h4.14v4.14h-4.14ZM645.55,117.34h4.14v4.14h-4.14ZM649.69,117.34h4.14v4.14h-4.14ZM657.97,117.34h4.14v4.14h-4.14ZM666.24,117.34h4.14v4.14h-4.14ZM670.38,117.34h4.14v4.14h-4.14ZM678.66,117.34h4.14v4.14h-4.14ZM691.07,117.34h4.14v4.14h-4.14ZM711.76,117.34h4.14v4.14h-4.14ZM720.03,117.34h4.14v4.14h-4.14ZM724.17,117.34h4.14v4.14h-4.14ZM728.31,117.34h4.14v4.14h-4.14ZM732.45,117.34h4.14v4.14h-4.14ZM740.72,117.34h4.14v4.14h-4.14ZM744.86,117.34h4.14v4.14h-4.14ZM637.28,121.48h4.14v4.14h-4.14ZM641.41,121.48h4.14v4.14h-4.14ZM645.55,121.48h4.14v4.14h-4.14ZM653.83,121.48h4.14v4.14h-4.14ZM657.97,121.48h4.14v4.14h-4.14ZM666.24,121.48h4.14v4.14h-4.14ZM674.52,121.48h4.14v4.14h-4.14ZM682.79,121.48h4.14v4.14h-4.14ZM686.93,121.48h4.14v4.14h-4.14ZM691.07,121.48h4.14v4.14h-4.14ZM703.48,121.48h4.14v4.14h-4.14ZM728.31,121.48h4.14v4.14h-4.14ZM736.59,121.48h4.14v4.14h-4.14ZM744.86,121.48h4.14v4.14h-4.14ZM637.28,125.62h4.14v4.14h-4.14ZM645.55,125.62h4.14v4.14h-4.14ZM674.52,125.62h4.14v4.14h-4.14ZM678.66,125.62h4.14v4.14h-4.14ZM682.79,125.62h4.14v4.14h-4.14ZM691.07,125.62h4.14v4.14h-4.14ZM695.21,125.62h4.14v4.14h-4.14ZM699.34,125.62h4.14v4.14h-4.14ZM703.48,125.62h4.14v4.14h-4.14ZM707.62,125.62h4.14v4.14h-4.14ZM728.31,125.62h4.14v4.14h-4.14ZM740.72,125.62h4.14v4.14h-4.14ZM744.86,125.62h4.14v4.14h-4.14ZM629.00,129.76h4.14v4.14h-4.14ZM633.14,129.76h4.14v4.14h-4.14ZM637.28,129.76h4.14v4.14h-4.14ZM641.41,129.76h4.14v4.14h-4.14ZM653.83,129.76h4.14v4.14h-4.14ZM657.97,129.76h4.14v4.14h-4.14ZM662.10,129.76h4.14v4.14h-4.14ZM666.24,129.76h4.14v4.14h-4.14ZM674.52,129.76h4.14v4.14h-4.14ZM678.66,129.76h4.14v4.14h-4.14ZM682.79,129.76h4.14v4.14h-4.14ZM695.21,129.76h4.14v4.14h-4.14ZM699.34,129.76h4.14v4.14h-4.14ZM711.76,129.76h4.14v4.14h-4.14ZM715.90,129.76h4.14v4.14h-4.14ZM720.03,129.76h4.14v4.14h-4.14ZM724.17,129.76h4.14v4.14h-4.14ZM728.31,129.76h4.14v4.14h-4.14ZM732.45,129.76h4.14v4.14h-4.14ZM744.86,129.76h4.14v4.14h-4.14ZM662.10,133.90h4.14v4.14h-4.14ZM678.66,133.90h4.14v4.14h-4.14ZM682.79,133.90h4.14v4.14h-4.14ZM686.93,133.90h4.14v4.14h-4.14ZM691.07,133.90h4.14v4.14h-4.14ZM695.21,133.90h4.14v4.14h-4.14ZM711.76,133.90h4.14v4.14h-4.14ZM728.31,133.90h4.14v4.14h-4.14ZM744.86,133.90h4.14v4.14h-4.14ZM629.00,138.03h4.14v4.14h-4.14ZM633.14,138.03h4.14v4.14h-4.14ZM637.28,138.03h4.14v4.14h-4.14ZM641.41,138.03h4.14v4.14h-4.14ZM645.55,138.03h4.14v4.14h-4.14ZM649.69,138.03h4.14v4.14h-4.14ZM653.83,138.03h4.14v4.14h-4.14ZM662.10,138.03h4.14v4.14h-4.14ZM666.24,138.03h4.14v4.14h-4.14ZM691.07,138.03h4.14v4.14h-4.14ZM695.21,138.03h4.14v4.14h-4.14ZM699.34,138.03h4.14v4.14h-4.14ZM707.62,138.03h4.14v4.14h-4.14ZM711.76,138.03h4.14v4.14h-4.14ZM720.03,138.03h4.14v4.14h-4.14ZM728.31,138.03h4.14v4.14h-4.14ZM732.45,138.03h4.14v4.14h-4.14ZM736.59,138.03h4.14v4.14h-4.14ZM744.86,138.03h4.14v4.14h-4.14ZM629.00,142.17h4.14v4.14h-4.14ZM653.83,142.17h4.14v4.14h-4.14ZM674.52,142.17h4.14v4.14h-4.14ZM678.66,142.17h4.14v4.14h-4.14ZM686.93,142.17h4.14v4.14h-4.14ZM695.21,142.17h4.14v4.14h-4.14ZM699.34,142.17h4.14v4.14h-4.14ZM711.76,142.17h4.14v4.14h-4.14ZM728.31,142.17h4.14v4.14h-4.14ZM740.72,142.17h4.14v4.14h-4.14ZM744.86,142.17h4.14v4.14h-4.14ZM629.00,146.31h4.14v4.14h-4.14ZM637.28,146.31h4.14v4.14h-4.14ZM641.41,146.31h4.14v4.14h-4.14ZM645.55,146.31h4.14v4.14h-4.14ZM653.83,146.31h4.14v4.14h-4.14ZM662.10,146.31h4.14v4.14h-4.14ZM666.24,146.31h4.14v4.14h-4.14ZM674.52,146.31h4.14v4.14h-4.14ZM678.66,146.31h4.14v4.14h-4.14ZM682.79,146.31h4.14v4.14h-4.14ZM686.93,146.31h4.14v4.14h-4.14ZM695.21,146.31h4.14v4.14h-4.14ZM699.34,146.31h4.14v4.14h-4.14ZM707.62,146.31h4.14v4.14h-4.14ZM711.76,146.31h4.14v4.14h-4.14ZM715.90,146.31h4.14v4.14h-4.14ZM720.03,146.31h4.14v4.14h-4.14ZM724.17,146.31h4.14v4.14h-4.14ZM728.31,146.31h4.14v4.14h-4.14ZM732.45,146.31h4.14v4.14h-4.14ZM740.72,146.31h4.14v4.14h-4.14ZM629.00,150.45h4.14v4.14h-4.14ZM637.28,150.45h4.14v4.14h-4.14ZM641.41,150.45h4.14v4.14h-4.14ZM645.55,150.45h4.14v4.14h-4.14ZM653.83,150.45h4.14v4.14h-4.14ZM666.24,150.45h4.14v4.14h-4.14ZM674.52,150.45h4.14v4.14h-4.14ZM691.07,150.45h4.14v4.14h-4.14ZM695.21,150.45h4.14v4.14h-4.14ZM703.48,150.45h4.14v4.14h-4.14ZM707.62,150.45h4.14v4.14h-4.14ZM711.76,150.45h4.14v4.14h-4.14ZM715.90,150.45h4.14v4.14h-4.14ZM744.86,150.45h4.14v4.14h-4.14ZM629.00,154.59h4.14v4.14h-4.14ZM637.28,154.59h4.14v4.14h-4.14ZM641.41,154.59h4.14v4.14h-4.14ZM645.55,154.59h4.14v4.14h-4.14ZM653.83,154.59h4.14v4.14h-4.14ZM666.24,154.59h4.14v4.14h-4.14ZM674.52,154.59h4.14v4.14h-4.14ZM691.07,154.59h4.14v4.14h-4.14ZM707.62,154.59h4.14v4.14h-4.14ZM732.45,154.59h4.14v4.14h-4.14ZM736.59,154.59h4.14v4.14h-4.14ZM740.72,154.59h4.14v4.14h-4.14ZM744.86,154.59h4.14v4.14h-4.14ZM629.00,158.72h4.14v4.14h-4.14ZM653.83,158.72h4.14v4.14h-4.14ZM686.93,158.72h4.14v4.14h-4.14ZM699.34,158.72h4.14v4.14h-4.14ZM707.62,158.72h4.14v4.14h-4.14ZM711.76,158.72h4.14v4.14h-4.14ZM715.90,158.72h4.14v4.14h-4.14ZM720.03,158.72h4.14v4.14h-4.14ZM724.17,158.72h4.14v4.14h-4.14ZM732.45,158.72h4.14v4.14h-4.14ZM740.72,158.72h4.14v4.14h-4.14ZM744.86,158.72h4.14v4.14h-4.14ZM629.00,162.86h4.14v4.14h-4.14ZM633.14,162.86h4.14v4.14h-4.14ZM637.28,162.86h4.14v4.14h-4.14ZM641.41,162.86h4.14v4.14h-4.14ZM645.55,162.86h4.14v4.14h-4.14ZM649.69,162.86h4.14v4.14h-4.14ZM653.83,162.86h4.14v4.14h-4.14ZM662.10,162.86h4.14v4.14h-4.14ZM666.24,162.86h4.14v4.14h-4.14ZM670.38,162.86h4.14v4.14h-4.14ZM678.66,162.86h4.14v4.14h-4.14ZM699.34,162.86h4.14v4.14h-4.14ZM711.76,162.86h4.14v4.14h-4.14ZM715.90,162.86h4.14v4.14h-4.14ZM720.03,162.86h4.14v4.14h-4.14ZM724.17,162.86h4.14v4.14h-4.14ZM732.45,162.86h4.14v4.14h-4.14ZM740.72,162.86h4.14v4.14h-4.14Z" fill="black"/></g>
<g id="sticker-ezyi4fwdvh"><path d="M796,107a87,87 0 1,0 174,0a87,87 0 1,0 -174,0Z" fill="white" stroke="black" stroke-width="0.5"/><path d="M823.00,47.00h4.14v4.14h-4.14ZM827.14,47.00h4.14v4.14h-4.14ZM831.28,47.00h4.14v4.14h-4.14ZM835.41,47.00h4.14v4.14h-4.14ZM839.55,47.00h4.14v4.14h-4.14ZM843.69,47.00h4.14v4.14h-4.14ZM847.83,47.00h4.14v4.14h-4.14ZM860.24,47.00h4.14v4.14h-4.14ZM864.38,47.00h4.14v4.14h-4.14ZM868.52,47.00h4.14v4.14h-4.14ZM872.66,47.00h4.14v4.14h-4.14ZM876.79,47.00h4.14v4.14h-4.14ZM880.93,47.00h4.14v4.14h-4.14ZM889.21,47.00h4.14v4.14h-4.14ZM893.34,47.00h4.14v4.14h-4.14ZM897.48,47.00h4.14v4.14h-4.14ZM901.62,47.00h4.14v4.14h-4.14ZM905.76,47.00h4.14v4.14h-4.14ZM914.03,47.00h4.14v4.14h-4.14ZM918.17,47.00h4.14v4.14h-4.14ZM922.31,47.00h4.14v4.14h-4.14ZM926.45,47.00h4.14v4.14h-4.14ZM930.59,47.00h4.14v4.14h-4.14ZM934.72,47.00h4.14v4.14h-4.14ZM938.86,47.00h4.14v4.14h-4.14ZM823.00,51.14h4.14v4.14h-4.14ZM847.83,51.14h4.14v4.14h-4.14ZM860.24,51.14h4.14v4.14h-4.14ZM876.79,51.14h4.14v4.14h-4.14ZM880.93,51.14h4.14v4.14h-4.14ZM885.07,51.14h4.14v4.14h-4.14ZM889.21,51.14h4.14v4.14h-4.14ZM897.48,51.14h4.14v4.14h-4.14ZM914.03,51.14h4.14v4.14h-4.14ZM938.86,51.14h4.14v4.14h-4.14ZM823.00,55.28h4.14v4.14h-4.14ZM831.28,55.28h4.14v4.14h-4.14ZM835.41,55.28h4.14v4.14h-4.14ZM839.55,55.28h4.14v4.14h-4.14ZM847.83,55.28h4.14v4.14h-4.14ZM864.38,55.28h4.14v4.14h-4.14ZM876.79,55.28h4.14v4.14h-4.14ZM889.21,55.28h4.14v4.14h-4.14ZM893.34,55.28h4.14v4.14h-4.14ZM914.03,55.28h4.14v4.14h-4.14ZM922.31,55.28h4.14v4.14h-4.14ZM926.45,55.28h4.14v4.14h-4.14ZM930.59,55.28h4.14v4.14h-4.14ZM938.86,55.28h4.14v4.14h-4.14ZM823.00,59.41h4.14v4.14h-4.14ZM831.28,59.41h4.14v4.14h-4.14ZM835.41,59.41h4.14v4.14h-4.14ZM839.55,59.41h4.14v4.14h-4.14ZM847.83,59.41h4.14v4.14h-4.14ZM860.24,59.41h4.14v4.14h-4.14ZM864.38,59.41h4.14v4.14h-4.14ZM868.52,59.41h4.14v4.14h-4.14ZM876.79,59.41h4.14v4.14h-4.14ZM880.93,59.41h4.14v4.14h-4.14ZM897.48,59.41h4.14v4.14h-4.14ZM901.62,59.41h4.14v4.14h-4.14ZM905.76,59.41h4.14v4.14h-4.14ZM914.03,59.41h4.14v4.14h-4.14ZM922.31,59.41h4.14v4.14h-4.14ZM926.45,59.41h4.14v4.14h-4.14ZM930.59,59.41h4.14v4.14h-4.14ZM938.86,59.41h4.14v4.14h-4.14ZM823.00,63.55h4.14v4.14h-4.14ZM831.28,63.55h4.14v4.14h-4.14ZM835.41,63.55h4.14v4.14h-4.14ZM839.55,63.55h4.14v4.14h-4.14ZM847.83,63.55h4.14v4.14h-4.14ZM860.24,63.55h4.14v4.14h-4.14ZM864.38,63.55h4.14v4.14h-4.14ZM876.79,63.55h4.14v4.14h-4.14ZM880.93,63.55h4.14v4.14h-4.14ZM885.07,63.55h4.14v4.14h-4.14ZM889.21,63.55h4.14v4.14h-4.14ZM905.76,63.55h4.14v4.14h-4.14ZM914.03,63.55h4.14v4.14h-4.14ZM922.31,63.55h4.14v4.14h-4.14ZM926.45,63.55h4.14v4.14h-4.14ZM930.59,63.55h4.14v4.14h-4.14ZM938.86,63.55h4.14v4.14h-4.14ZM823.00,67.69h4.14v4.14h-4.14ZM847.83,67.69h4.14v4.14h-4.14ZM856.10,67.69h4.14v4.14h-4.14ZM864.38,67.69h4.14v4.14h-4.14ZM876.79,67.69h4.14v4.14h-4.14ZM880.93,67.69h4.14v4.14h-4.14ZM885.07,67.69h4.14v4.14h-4.14ZM901.62,67.69h4.14v4.14h-4.14ZM905.76,67.69h4.14v4.14h-4.14ZM914.03,67.69h4.14v4.14h-4.14ZM938.86,67.69h4.14v4.14h-4.14ZM823.00,71.83h4.14v4.14h-4.14ZM827.14,71.83h4.14v4.14h-4.14ZM831.28,71.83h4.14v4.14h-4.14ZM835.41,71.83h4.14v4.14h-4.14ZM839.55,71.83h4.14v4.14h-4.14ZM843.69,71.83h4.14v4.14h-4.14ZM847.83,71.83h4.14v4.14h-4.14ZM856.10,71.83h4.14v4.14h-4.14ZM864.38,71.83h4.14v4.14h-4.14ZM872.66,71.83h4.14v4.14h-4.14ZM880.93,71.83h4.14v4.14h-4.14ZM889.21,71.83h4.14v4.14h-4.14ZM897.48,71.83h4.14v4.14h-4.14ZM905.76,71.83h4.14v4.14h-4.14ZM914.03,71.83h4.14v4.14h-4.14ZM918.17,71.83h4.14v4.14h-4.14ZM922.31,71.83h4.14v4.14h-4.14ZM926.45,71.83h4.14v4.14h-4.14ZM930.59,71.83h4.14v4.14h-4.14ZM934.72,71.83h4.14v4.14h-4.14ZM938.86,71.83h4.14v4.14h-4.14ZM860.24,75.97h4.14v4.14h-4.14ZM872.66,75.97h4.14v4.14h-4.14ZM880.93,75.97h4.14v4.14h-4.14ZM893.34,75.97h4.14v4.14h-4.14ZM897.48,75.97h4.14v4.14h-4.14ZM823.00,80.10h4.14v4.14h-4.14ZM835.41,80.10h4.14v4.14h-4.14ZM843.69,80.10h4.14v4.14h-4.14ZM847.83,80.10h4.14v4.14h-4.14ZM856.10,80.10h4.14v4.14h-4.14ZM860.24,80.10h4.14v4.14h-4.14ZM872.66,80.10h4.14v4.14h-4.14ZM905.76,80.10h4.14v4.14h-4.14ZM909.90,80.10h4.14v4.14h-4.14ZM918.17,80.10h4.14v4.14h-4.14ZM827.14,84.24h4.14v4.14h-4.14ZM831.28,84.24h4.14v4.14h-4.14ZM843.69,84.24h4.14v4.14h-4.14ZM868.52,84.24h4.14v4.14h-4.14ZM872.66,84.24h4.14v4.14h-4.14ZM880.93,84.24h4.14v4.14h-4.14ZM889.21,84.24h4.14v4.14h-4.14ZM893.34,84.24h4.14v4.14h-4.14ZM897.48,84.24h4.14v4.14h-4.14ZM909.90,84.24h4.14v4.14h-4.14ZM914.03,84.24h4.14v4.14h-4.14ZM926.45,84.24h4.14v4.14h-4.14ZM938.86,84.24h4.14v4.14h-4.14ZM823.00,88.38h4.14v4.14h-4.14ZM827.14,88.38h4.14v4.14h-4.14ZM831.28,88.38h4.14v4.14h-4.14ZM847.83,88.38h4.14v4.14h-4.14ZM851.97,88.38h4.14v4.14h-4.14ZM856.10,88.38h4.14v4.14h-4.14ZM860.24,88.38h4.14v4.14h-4.14ZM893.34,88.38h4.14v4.14h-4.14ZM897.48,88.38h4.14v4.14h-4.14ZM901.62,88.38h4.14v4.14h-4.14ZM905.76,88.38h4.14v4.14h-4.14ZM909.90,88.38h4.14v4.14h-4.14ZM914.03,88.38h4.14v4.14h-4.14ZM918.17,88.38h4.14v4.14h-4.14ZM922.31,88.38h4.14v4.14h-4.14ZM926.45,88.38h4.14v4.14h-4.14ZM930.59,88.38h4.14v4.14h-4.14ZM934.72,88.38h4.14v4.14h-4.14ZM823.00,92.52h4.14v4.14h-4.14ZM827.14,92.52h4.14v4.14h-4.14ZM839.55,92.52h4.14v4.14h-4.14ZM851.97,92.52h4.14v4.14h-4.14ZM860.24,92.52h4.14v4.14h-4.14ZM880.93,92.52h4.14v4.14h-4.14ZM885.07,92.52h4.14v4.14h-4.14ZM889.21,92.52h4.14v4.14h-4.14ZM901.62,92.52h4.14v4.14h-4.14ZM905.76,92.52h4.14v4.14h-4.14ZM909.90,92.52h4.14v4.14h-4.14ZM930.59,92.52h4.14v4.14h-4.14ZM934.72,92.52h4.14v4.14h-4.14ZM823.00,96.66h4.14v4.14h-4.14ZM827.14,96.66h4.14v4.14h-4.14ZM831.28,96.66h4.14v4.14h-4.14ZM847.83,96.66h4.14v4.14h-4.14ZM851.97,96.66h4.14v4.14h-4.14ZM860.24,96.66h4.14v4.14h-4.14ZM868.52,96.66h4.14v4.14h-4.14ZM889.21,96.66h4.14v4.14h-4.14ZM893.34,96.66h4.14v4.14h-4.14ZM897.48,96.66h4.14v4.14h-4.14ZM909.90,96.66h4.14v4.14h-4.14ZM914.03,96.66h4.14v4.14h-4.14ZM926.45,96.66h4.14v4.14h-4.14ZM934.72,96.66h4.14v4.14h-4.14ZM938.86,96.66h4.14v4.14h-4.14ZM827.14,100.79h4.14v4.14h-4.14ZM839.55,100.79h4.14v4.14h-4.14ZM851.97,100.79h4.14v4.14h-4.14ZM856.10,100.79h4.14v4.14h-4.14ZM860.24,100.79h4.14v4.14h-4.14ZM872.66,100.79h4.14v4.14h-4.14ZM901.62,100.79h4.14v4.14h-4.14ZM909.90,100.79h4.14v4.14h-4.14ZM823.00,104.93h4.14v4.14h-4.14ZM831.28,104.93h4.14v4.14h-4.14ZM839.55,104.93h4.14v4.14h-4.14ZM843.69,104.93h4.14v4.14h-4.14ZM847.83,104.93h4.14v4.14h-4.14ZM851.97,104.93h4.14v4.14h-4.14ZM860.24,104.93h4.14v4.14h-4.14ZM905.76,104.93h4.14v4.14h-4.14ZM926.45,104.93h4.14v4.14h-4.14ZM930.59,104.93h4.14v4.14h-4.14ZM934.72,104.93h4.14v4.14h-4.14ZM938.86,104.93h4.14v4.14h-4.14ZM831.28,109.07h4.14v4.14h-4.14ZM835.41,109.07h4.14v4.14h-4.14ZM839.55,109.07h4.14v4.14h-4.14ZM856.10,109.07h4.14v4.14h-4.14ZM860.24,109.07h4.14v4.14h-4.14ZM868.52,109.07h4.14v4.14h-4.14ZM872.66,109.07h4.14v4.14h-4.14ZM876.79,109.07h4.14v4.14h-4.14ZM880.93,109.07h4.14v4.14h-4.14ZM889.21,109.07h4.14v4.14h-4.14ZM893.34,109.07h4.14v4.14h-4.14ZM897.48,109.07h4.14v4.14h-4.14ZM909.90,109.07h4.14v4.14h-4.14ZM918.17,109.07h4.14v4.14h-4.14ZM926.45,109.07h4.14v4.14h-4.14ZM934.72,109.07h4.14v4.14h-4.14ZM827.14,113.21h4.14v4.14h-4.14ZM831.28,113.21h4.14v4.14h-4.14ZM835.41,113.21h4.14v4.14h-4.14ZM839.55,113.21h4.14v4.14h-4.14ZM847.83,113.21h4.14v4.14h-4.14ZM851.97,113.21h4.14v4.14h-4.14ZM868.52,113.21h4.14v4.14h-4.14ZM872.66,113.21h4.14v4.14h-4.14ZM876.79,113.21h4.14v4.14h-4.14ZM880.93,113.21h4.14v4.14h-4.14ZM889.21,113.21h4.14v4.14h-4.14ZM893.34,113.21h4.14v4.14h-4.14ZM901.62,113.21h4.14v4.14h-4.14ZM909.90,113.21h4.14v4.14h-4.14ZM934.72,113.21h4.14v4.14h-4.14ZM831.28,117.34h4.14v4.14h-4.14ZM839.55,117.34h4.14v4.14h-4.14ZM851.97,117.34h4.14v4.14h-4.14ZM864.38,117.34h4.14v4.14h-4.14ZM872.66,117.34h4.14v4.14h-4.14ZM889.21,117.34h4.14v4.14h-4.14ZM905.76,117.34h4.14v4.14h-4.14ZM909.90,117.34h4.14v4.14h-4.14ZM914.03,117.34h4.14v4.14h-4.14ZM918.17,117.34h4.14v4.14h-4.14ZM926.45,117.34h4.14v4.14h-4.14ZM938.86,117.34h4.14v4.14h-4.14ZM823.00,121.48h4.14v4.14h-4.14ZM835.41,121.48h4.14v4.14h-4.14ZM839.55,121.48h4.14v4.14h-4.14ZM843.69,121.48h4.14v4.14h-4.14ZM847.83,121.48h4.14v4.14h-4.14ZM860.24,121.48h4.14v4.14h-4.14ZM872.66,121.48h4.14v4.14h-4.14ZM876.79,121.48h4.14v4.14h-4.14ZM889.21,121.48h4.14v4.14h-4.14ZM905.76,121.48h4.14v4.14h-4.14ZM909.90,121.48h4.14v4.14h-4.14ZM918.17,121.48h4.14v4.14h-4.14ZM934.72,121.48h4.14v4.14h-4.14ZM938.86,121.48h4.14v4.14h-4.14ZM831.28,125.62h4.14v4.14h-4.14ZM843.69,125.62h4.14v4.14h-4.14ZM856.10,125.62h4.14v4.14h-4.14ZM860.24,125.62h4.14v4.14h-4.14ZM864.38,125.62h4.14v4.14h-4.14ZM876.79,125.62h4.14v4.14h-4.14ZM893.34,125.62h4.14v4.14h-4.14ZM897.48,125.62h4.14v4.14h-4.14ZM901.62,125.62h4.14v4.14h-4.14ZM922.31,125.62h4.14v4.14h-4.14ZM934.72,125.62h4.14v4.14h-4.14ZM938.86,125.62h4.14v4.14h-4.14ZM823.00,129.76h4.14v4.14h-4.14ZM839.55,129.76h4.14v4.14h-4.14ZM843.69,129.76h4.14v4.14h-4.14ZM847.83,129.76h4.14v4.14h-4.14ZM851.97,129.76h4.14v4.14h-4.14ZM856.10,129.76h4.14v4.14h-4.14ZM860.24,129.76h4.14v4.14h-4.14ZM872.66,129.76h4.14v4.14h-4.14ZM880.93,129.76h4.14v4.14h-4.14ZM889.21,129.76h4.14v4.14h-4.14ZM901.62,129.76h4.14v4.14h-4.14ZM905.76,129.76h4.14v4.14h-4.14ZM909.90,129.76h4.14v4.14h-4.14ZM914.03,129.76h4.14v4.14h-4.14ZM918.17,129.76h4.14v4.14h-4.14ZM922.31,129.76h4.14v4.14h-4.14ZM930.59,129.76h4.14v4.14h-4.14ZM856.10,133.90h4.14v4.14h-4.14ZM860.24,133.90h4.14v4.14h-4.14ZM864.38,133.90h4.14v4.14h-4.14ZM868.52,133.90h4.14v4.14h-4.14ZM876.79,133.90h4.14v4.14h-4.14ZM889.21,133.90h4.14v4.14h-4.14ZM897.48,133.90h4.14v4.14h-4.14ZM905.76,133.90h4.14v4.14h-4.14ZM922.31,133.90h4.14v4.14h-4.14ZM930.59,133.90h4.14v4.14h-4.14ZM934.72,133.90h4.14v4.14h-4.14ZM938.86,133.90h4.14v4.14h-4.14ZM823.00,138.03h4.14v4.14h-4.14ZM827.14,138.03h4.14v4.14h-4.14ZM831.28,138.03h4.14v4.14h-4.14ZM835.41,138.03h4.14v4.14h-4.14ZM839.55,138.03h4.14v4.14h-4.14ZM843.69,138.03h4.14v4.14h-4.14ZM847.83,138.03h4.14v4.14h-4.14ZM872.66,138.03h4.14v4.14h-4.14ZM876.79,138.03h4.14v4.14h-4.14ZM880.93,138.03h4.14v4.14h-4.14ZM893.34,138.03h4.14v4.14h-4.14ZM897.48,138.03h4.14v4.14h-4.14ZM905.76,138.03h4.14v4.14h-4.14ZM914.03,138.03h4.14v4.14h-4.14ZM922.31,138.03h4.14v4.14h-4.14ZM934.72,138.03h4.14v4.14h-4.14ZM823.00,142.17h4.14v4.14h-4.14ZM847.83,142.17h4.14v4.14h-4.14ZM856.10,142.17h4.14v4.14h-4.14ZM860.24,142.17h4.14v4.14h-4.14ZM864.38,142.17h4.14v4.14h-4.14ZM868.52,142.17h4.14v4.14h-4.14ZM872.66,142.17h4.14v4.14h-4.14ZM876.79,142.17h4.14v4.14h-4.14ZM885.07,142.17h4.14v4.14h-4.14ZM889.21,142.17h4.14v4.14h-4.14ZM901.62,142.17h4.14v4.14h-4.14ZM905.76,142.17h4.14v4.14h-4.14ZM922.31,142.17h4.14v4.14h-4.14ZM926.45,142.17h4.14v4.14h-4.14ZM930.59,142.17h4.14v4.14h-4.14ZM934.72,142.17h4.14v4.14h-4.14ZM823.00,146.31h4.14v4.14h-4.14ZM831.28,146.31h4.14v4.14h-4.14ZM835.41,146.31h4.14v4.14h-4.14ZM839.55,146.31h4.14v4.14h-4.14ZM847.83,146.31h4.14v4.14h-4.14ZM864.38,146.31h4.14v4.14h-4.14ZM872.66,146.31h4.14v4.14h-4.14ZM880.93,146.31h4.14v4.14h-4.14ZM893.34,146.31h4.14v4.14h-4.14ZM905.76,146.31h4.14v4.14h-4.14ZM909.90,146.31h4.14v4.14h-4.14ZM914.03,146.31h4.14v4.14h-4.14ZM918.17,146.31h4.14v4.14h-4.14ZM922.31,146.31h4.14v4.14h-4.14ZM934.72,146.31h4.14v4.14h-4.14ZM938.86,146.31h4.14v4.14h-4.14ZM823.00,150.45h4.14v4.14h-4.14ZM831.28,150.45h4.14v4.14h-4.14ZM835.41,150.45h4.14v4.14h-4.14ZM839.55,150.45h4.14v4.14h-4.14ZM847.83,150.45h4.14v4.14h-4.14ZM856.10,150.45h4.14v4.14h-4.14ZM860.24,150.45h4.14v4.14h-4.14ZM880.93,150.45h4.14v4.14h-4.14ZM889.21,150.45h4.14v4.14h-4.14ZM897.48,150.45h4.14v4.14h-4.14ZM914.03,150.45h4.14v4.14h-4.14ZM918.17,150.45h4.14v4.14h-4.14ZM922.31,150.45h4.14v4.14h-4.14ZM926.45,150.45h4.14v4.14h-4.14ZM930.59,150.45h4.14v4.14h-4.14ZM934.72,150.45h4.14v4.14h-4.14ZM823.00,154.59h4.14v4.14h-4.14ZM831.28,154.59h4.14v4.14h-4.14ZM835.41,154.59h4.14v4.14h-4.14ZM839.55,154.59h4.14v4.14h-4.14ZM847.83,154.59h4.14v4.14h-4.14ZM868.52,154.59h4.14v4.14h-4.14ZM876.79,154.59h4.14v4.14h-4.14ZM880.93,154.59h4.14v4.14h-4.14ZM893.34,154.59h4.14v4.14h-4.14ZM897.48,154.59h4.14v4.14h-4.14ZM901.62,154.59h4.14v4.14h-4.14ZM909.90,154.59h4.14v4.14h-4.14ZM922.31,154.59h4.14v4.14h-4.14ZM926.45,154.59h4.14v4.14h-4.14ZM930.59,154.59h4.14v4.14h-4.14ZM938.86,154.59h4.14v4.14h-4.14ZM823.00,158.72h4.14v4.14h-4.14ZM847.83,158.72h4.14v4.14h-4.14ZM864.38,158.72h4.14v4.14h-4.14ZM880.93,158.72h4.14v4.14h-4.14ZM885.07,158.72h4.14v4.14h-4.14ZM893.34,158.72h4.14v4.14h-4.14ZM897.48,158.72h4.14v4.14h-4.14ZM905.76,158.72h4.14v4.14h-4.14ZM909.90,158.72h4.14v4.14h-4.14ZM918.17,158.72h4.14v4.14h-4.14ZM934.72,158.72h4.14v4.14h-4.14ZM823.00,162.86h4.14v4.14h-4.14ZM827.14,162.86h4.14v4.14h-4.14ZM831.28,162.86h4.14v4.14h-4.14ZM835.41,162.86h4.14v4.14h-4.14ZM839.55,162.86h4.14v4.14h-4.14ZM843.69,162.86h4.14v4.14h-4.14ZM847.83,162.86h4.14v4.14h-4.14ZM856.10,162.86h4.14v4.14h-4.14ZM864.38,162.86h4.14v4.14h-4.14ZM885.07,162.86h4.14v4.14h-4.14ZM893.34,162.86h4.14v4.14h-4.14ZM905.76,162.86h4.14v4.14h-4.14ZM909.90,162.86h4.14v4.14h-4.14ZM914.03,162.86h4.14v4.14h-4.14ZM918.17,162.86h4.14v4.14h-4.14ZM926.45,162.86h4.14v4.14h-4.14ZM934.72,162.86h4.14v4.14h-4.14Z" fill="black"/></g>
</svg>