<?xml version="1.0" encoding="UTF-8"?>
<svg xmlns="http://www.w3.org/2000/svg" width="38mm" height="38mm" viewBox="0 0 38 38">
  <circle cx="19" cy="19" r="19" fill="white" stroke="#ccc" stroke-width="0.3"/>
<rect x="3" y="3" width="1.103448275862069" height="1.103448275862069" rx="0.16551724137931034" fill="#000"/>
<rect x="4.103448275862069" y="3" width="1.103448275862069" height="1.103448275862069" rx="0.16551724137931034" fill="#000"/>
<rect x="5.206896551724138" y="3" width="1.103448275862069" height="1.103448275862069" rx="0.16551724137931034" fill="#000"/>
<rect x="6.310344827586206" y="3" width="1.103448275862069" height="1.103448275862069" rx="0.16551724137931034" fill="#000"/>
<rect x="7.413793103448276" y="3" width="1.103448275862069" height="1.103448275862069" rx="0.16551724137931034" fill="#000"/>
<rect x="8.517241379310345" y="3" width="1.103448275862069" height="1.103448275862069" rx="0.16551724137931034" fill="#000"/>
<rect x="9.620689655172413" y="3" width="1.103448275862069" height="1.103448275862069" rx="0.16551724137931034" fill="#000"/>
<circle cx="13.482758620689655" cy="3.5517241379310347" r="0.46344827586206894" fill="#000"/>
<circle cx="14.586206896551724" cy="3.5517241379310347" r="0.46344827586206894" fill="#000"/>
<circle cx="15.689655172413792" cy="3.5517241379310347" r="0.46344827586206894" fill="#000"/>
<circle cx="16.79310344827586" cy="3.5517241379310347" r="0.46344827586206894" fill="#000"/>
<circle cx="17.896551724137932" cy="3.5517241379310347" r="0.46344827586206894" fill="#000"/>
<circle cx="19" cy="3.5517241379310347" r="0.46344827586206894" fill="#000"/>
<circle cx="21.20689655172414" cy="3.5517241379310347" r="0.46344827586206894" fill="#000"/>
<circle cx="22.310344827586206" cy="3.5517241379310347" r="0.46344827586206894" fill="#000"/>
<circle cx="23.413793103448278" cy="3.5517241379310347" r="0.46344827586206894" fill="#000"/>
<circle cx="24.517241379310345" cy="3.5517241379310347" r="0.46344827586206894" fill="#000"/>
<circle cx="25.620689655172416" cy="3.5517241379310347" r="0.46344827586206894" fill="#000"/>
<rect x="27.275862068965516" y="3" width="1.103448275862069" height="1.103448275862069" rx="0.16551724137931034" fill="#000"/>
<rect x="28.379310344827587" y="3" width="1.103448275862069" height="1.103448275862069" rx="0.16551724137931034" fill="#000"/>
<rect x="29.482758620689655" y="3" width="1.103448275862069" height="1.103448275862069" rx="0.16551724137931034" fill="#000"/>
<rect x="30.586206896551722" y="3" width="1.103448275862069" height="1.103448275862069" rx="0.16551724137931034" fill="#000"/>
<rect x="31.68965517241379" y="3" width="1.103448275862069" height="1.103448275862069" rx="0.16551724137931034" fill="#000"/>
<rect x="32.79310344827586" y="3" width="1.103448275862069" height="1.103448275862069" rx="0.16551724137931034" fill="#000"/>
<rect x="33.89655172413793" y="3" width="1.103448275862069" height="1.103448275862069" rx="0.16551724137931034" fill="#000"/>
<rect x="3" y="4.103448275862069" width="1.103448275862069" height="1.103448275862069" rx="0.16551724137931034" fill="#000"/>
<rect x="9.620689655172413" y="4.103448275862069" width="1.103448275862069" height="1.103448275862069" rx="0.16551724137931034" fill="#000"/>
<circle cx="13.482758620689655" cy="4.655172413793104" r="0.46344827586206894" fill="#000"/>
<circle cx="17.896551724137932" cy="4.655172413793104" r="0.46344827586206894" fill="#000"/>
<circle cx="19" cy="4.655172413793104" r="0.46344827586206894" fill="#000"/>
<circle cx="20.10344827586207" cy="4.655172413793104" r="0.46344827586206894" fill="#000"/>
<circle cx="21.20689655172414" cy="4.655172413793104" r="0.46344827586206894" fill="#000"/>
<circle cx="23.413793103448278" cy="4.655172413793104" r="0.46344827586206894" fill="#000"/>
<rect x="27.275862068965516" y="4.103448275862069" width="1.103448275862069" height="1.103448275862069" rx="0.16551724137931034" fill="#000"/>
<rect x="33.89655172413793" y="4.103448275862069" width="1.103448275862069" height="1.103448275862069" rx="0.16551724137931034" fill="#000"/>
<rect x="3" y="5.206896551724138" width="1.103448275862069" height="1.103448275862069" rx="0.16551724137931034" fill="#000"/>
<rect x="5.206896551724138" y="5.206896551724138" width="1.103448275862069" height="1.103448275862069" rx="0.16551724137931034" fill="#000"/>
<rect x="6.310344827586206" y="5.206896551724138" width="1.103448275862069" height="1.103448275862069" rx="0.16551724137931034" fill="#000"/>
<rect x="7.413793103448276" y="5.206896551724138" width="1.103448275862069" height="1.103448275862069" rx="0.16551724137931034" fill="#000"/>
<rect x="9.620689655172413" y="5.206896551724138" width="1.103448275862069" height="1.103448275862069" rx="0.16551724137931034" fill="#000"/>
<circle cx="14.586206896551724" cy="5.758620689655173" r="0.46344827586206894" fill="#000"/>
<circle cx="17.896551724137932" cy="5.758620689655173" r="0.46344827586206894" fill="#000"/>
<circle cx="21.20689655172414" cy="5.758620689655173" r="0.46344827586206894" fill="#000"/>
<circle cx="22.310344827586206" cy="5.758620689655173" r="0.46344827586206894" fill="#000"/>
<rect x="27.275862068965516" y="5.206896551724138" width="1.103448275862069" height="1.103448275862069" rx="0.16551724137931034" fill="#000"/>
<rect x="29.482758620689655" y="5.206896551724138" width="1.103448275862069" height="1.103448275862069" rx="0.16551724137931034" fill="#000"/>
<rect x="30.586206896551722" y="5.206896551724138" width="1.103448275862069" height="1.103448275862069" rx="0.16551724137931034" fill="#000"/>
<rect x="31.68965517241379" y="5.206896551724138" width="1.103448275862069" height="1.103448275862069" rx="0.16551724137931034" fill="#000"/>
<rect x="33.89655172413793" y="5.206896551724138" width="1.103448275862069" height="1.103448275862069" rx="0.16551724137931034" fill="#000"/>
<rect x="3" y="6.310344827586206" width="1.103448275862069" height="1.103448275862069" rx="0.16551724137931034" fill="#000"/>
<rect x="5.206896551724138" y="6.310344827586206" width="1.103448275862069" height="1.103448275862069" rx="0.16551724137931034" fill="#000"/>
<rect x="6.310344827586206" y="6.310344827586206" width="1.103448275862069" height="1.103448275862069" rx="0.16551724137931034" fill="#000"/>
<rect x="7.413793103448276" y="6.310344827586206" width="1.103448275862069" height="1.103448275862069" rx="0.16551724137931034" fill="#000"/>
<rect x="9.620689655172413" y="6.310344827586206" width="1.103448275862069" height="1.103448275862069" rx="0.16551724137931034" fill="#000"/>
<circle cx="13.482758620689655" cy="6.862068965517241" r="0.46344827586206894" fill="#000"/>
<circle cx="14.586206896551724" cy="6.862068965517241" r="0.46344827586206894" fill="#000"/>
<circle cx="15.689655172413792" cy="6.862068965517241" r="0.46344827586206894" fill="#000"/>
<circle cx="17.896551724137932" cy="6.862068965517241" r="0.46344827586206894" fill="#000"/>
<circle cx="19" cy="6.862068965517241" r="0.46344827586206894" fill="#000"/>
<circle cx="23.413793103448278" cy="6.862068965517241" r="0.46344827586206894" fill="#000"/>
<circle cx="24.517241379310345" cy="6.862068965517241" r="0.46344827586206894" fill="#000"/>
<circle cx="25.620689655172416" cy="6.862068965517241" r="0.46344827586206894" fill="#000"/>
<rect x="27.275862068965516" y="6.310344827586206" width="1.103448275862069" height="1.103448275862069" rx="0.16551724137931034" fill="#000"/>
<rect x="29.482758620689655" y="6.310344827586206" width="1.103448275862069" height="1.103448275862069" rx="0.16551724137931034" fill="#000"/>
<rect x="30.586206896551722" y="6.310344827586206" width="1.103448275862069" height="1.103448275862069" rx="0.16551724137931034" fill="#000"/>
<rect x="31.68965517241379" y="6.310344827586206" width="1.103448275862069" height="1.103448275862069" rx="0.16551724137931034" fill="#000"/>
<rect x="33.89655172413793" y="6.310344827586206" width="1.103448275862069" height="1.103448275862069" rx="0.16551724137931034" fill="#000"/>
<rect x="3" y="7.413793103448276" width="1.103448275862069" height="1.103448275862069" rx="0.16551724137931034" fill="#000"/>
<rect x="5.206896551724138" y="7.413793103448276" width="1.103448275862069" height="1.103448275862069" rx="0.16551724137931034" fill="#000"/>
<rect x="6.310344827586206" y="7.413793103448276" width="1.103448275862069" height="1.103448275862069" rx="0.16551724137931034" fill="#000"/>
<rect x="7.413793103448276" y="7.413793103448276" width="1.103448275862069" height="1.103448275862069" rx="0.16551724137931034" fill="#000"/>
<rect x="9.620689655172413" y="7.413793103448276" width="1.103448275862069" height="1.103448275862069" rx="0.16551724137931034" fill="#000"/>
<circle cx="13.482758620689655" cy="7.9655172413793105" r="0.46344827586206894" fill="#000"/>
<circle cx="14.586206896551724" cy="7.9655172413793105" r="0.46344827586206894" fill="#000"/>
<circle cx="17.896551724137932" cy="7.9655172413793105" r="0.46344827586206894" fill="#000"/>
<circle cx="19" cy="7.9655172413793105" r="0.46344827586206894" fill="#000"/>
<circle cx="20.10344827586207" cy="7.9655172413793105" r="0.46344827586206894" fill="#000"/>
<circle cx="21.20689655172414" cy="7.9655172413793105" r="0.46344827586206894" fill="#000"/>
<circle cx="25.620689655172416" cy="7.9655172413793105" r="0.46344827586206894" fill="#000"/>
<rect x="27.275862068965516" y="7.413793103448276" width="1.103448275862069" height="1.103448275862069" rx="0.16551724137931034" fill="#000"/>
<rect x="29.482758620689655" y="7.413793103448276" width="1.103448275862069" height="1.103448275862069" rx="0.16551724137931034" fill="#000"/>
<rect x="30.586206896551722" y="7.413793103448276" width="1.103448275862069" height="1.103448275862069" rx="0.16551724137931034" fill="#000"/>
<rect x="31.68965517241379" y="7.413793103448276" width="1.103448275862069" height="1.103448275862069" rx="0.16551724137931034" fill="#000"/>
<rect x="33.89655172413793" y="7.413793103448276" width="1.103448275862069" height="1.103448275862069" rx="0.16551724137931034" fill="#000"/>
<rect x="3" y="8.517241379310345" width="1.103448275862069" height="1.103448275862069" rx="0.16551724137931034" fill="#000"/>
<rect x="9.620689655172413" y="8.517241379310345" width="1.103448275862069" height="1.103448275862069" rx="0.16551724137931034" fill="#000"/>
<circle cx="12.379310344827585" cy="9.068965517241379" r="0.46344827586206894" fill="#000"/>
<circle cx="14.586206896551724" cy="9.068965517241379" r="0.46344827586206894" fill="#000"/>
<circle cx="17.896551724137932" cy="9.068965517241379" r="0.46344827586206894" fill="#000"/>
<circle cx="19" cy="9.068965517241379" r="0.46344827586206894" fill="#000"/>
<circle cx="20.10344827586207" cy="9.068965517241379" r="0.46344827586206894" fill="#000"/>
<circle cx="24.517241379310345" cy="9.068965517241379" r="0.46344827586206894" fill="#000"/>
<circle cx="25.620689655172416" cy="9.068965517241379" r="0.46344827586206894" fill="#000"/>
<rect x="27.275862068965516" y="8.517241379310345" width="1.103448275862069" height="1.103448275862069" rx="0.16551724137931034" fill="#000"/>
<rect x="33.89655172413793" y="8.517241379310345" width="1.103448275862069" height="1.103448275862069" rx="0.16551724137931034" fill="#000"/>
<rect x="3" y="9.620689655172413" width="1.103448275862069" height="1.103448275862069" rx="0.16551724137931034" fill="#000"/>
<rect x="4.103448275862069" y="9.620689655172413" width="1.103448275862069" height="1.103448275862069" rx="0.16551724137931034" fill="#000"/>
<rect x="5.206896551724138" y="9.620689655172413" width="1.103448275862069" height="1.103448275862069" rx="0.16551724137931034" fill="#000"/>
<rect x="6.310344827586206" y="9.620689655172413" width="1.103448275862069" height="1.103448275862069" rx="0.16551724137931034" fill="#000"/>
<rect x="7.413793103448276" y="9.620689655172413" width="1.103448275862069" height="1.103448275862069" rx="0.16551724137931034" fill="#000"/>
<rect x="8.517241379310345" y="9.620689655172413" width="1.103448275862069" height="1.103448275862069" rx="0.16551724137931034" fill="#000"/>
<rect x="9.620689655172413" y="9.620689655172413" width="1.103448275862069" height="1.103448275862069" rx="0.16551724137931034" fill="#000"/>
<circle cx="12.379310344827585" cy="10.172413793103447" r="0.46344827586206894" fill="#000"/>
<circle cx="14.586206896551724" cy="10.172413793103447" r="0.46344827586206894" fill="#000"/>
<circle cx="16.79310344827586" cy="10.172413793103447" r="0.46344827586206894" fill="#000"/>
<circle cx="19" cy="10.172413793103447" r="0.46344827586206894" fill="#000"/>
<circle cx="21.20689655172414" cy="10.172413793103447" r="0.46344827586206894" fill="#000"/>
<circle cx="23.413793103448278" cy="10.172413793103447" r="0.46344827586206894" fill="#000"/>
<circle cx="25.620689655172416" cy="10.172413793103447" r="0.46344827586206894" fill="#000"/>
<rect x="27.275862068965516" y="9.620689655172413" width="1.103448275862069" height="1.103448275862069" rx="0.16551724137931034" fill="#000"/>
<rect x="28.379310344827587" y="9.620689655172413" width="1.103448275862069" height="1.103448275862069" rx="0.16551724137931034" fill="#000"/>
<rect x="29.482758620689655" y="9.620689655172413" width="1.103448275862069" height="1.103448275862069" rx="0.16551724137931034" fill="#000"/>
<rect x="30.586206896551722" y="9.620689655172413" width="1.103448275862069" height="1.103448275862069" rx="0.16551724137931034" fill="#000"/>
<rect x="31.68965517241379" y="9.620689655172413" width="1.103448275862069" height="1.103448275862069" rx="0.16551724137931034" fill="#000"/>
<rect x="32.79310344827586" y="9.620689655172413" width="1.103448275862069" height="1.103448275862069" rx="0.16551724137931034" fill="#000"/>
<rect x="33.89655172413793" y="9.620689655172413" width="1.103448275862069" height="1.103448275862069" rx="0.16551724137931034" fill="#000"/>
<circle cx="13.482758620689655" cy="11.275862068965516" r="0.46344827586206894" fill="#000"/>
<circle cx="16.79310344827586" cy="11.275862068965516" r="0.46344827586206894" fill="#000"/>
<circle cx="19" cy="11.275862068965516" r="0.46344827586206894" fill="#000"/>
<circle cx="22.310344827586206" cy="11.275862068965516" r="0.46344827586206894" fill="#000"/>
<circle cx="23.413793103448278" cy="11.275862068965516" r="0.46344827586206894" fill="#000"/>
<circle cx="3.5517241379310347" cy="12.379310344827585" r="0.46344827586206894" fill="#000"/>
<circle cx="6.862068965517241" cy="12.379310344827585" r="0.46344827586206894" fill="#000"/>
<circle cx="9.068965517241379" cy="12.379310344827585" r="0.46344827586206894" fill="#000"/>
<circle cx="10.172413793103447" cy="12.379310344827585" r="0.46344827586206894" fill="#000"/>
<circle cx="12.379310344827585" cy="12.379310344827585" r="0.46344827586206894" fill="#000"/>
<circle cx="13.482758620689655" cy="12.379310344827585" r="0.46344827586206894" fill="#000"/>
<circle cx="16.79310344827586" cy="12.379310344827585" r="0.46344827586206894" fill="#000"/>
<circle cx="25.620689655172416" cy="12.379310344827585" r="0.46344827586206894" fill="#000"/>
<circle cx="26.724137931034484" cy="12.379310344827585" r="0.46344827586206894" fill="#000"/>
<circle cx="28.931034482758623" cy="12.379310344827585" r="0.46344827586206894" fill="#000"/>
<circle cx="4.655172413793104" cy="13.482758620689655" r="0.46344827586206894" fill="#000"/>
<circle cx="5.758620689655173" cy="13.482758620689655" r="0.46344827586206894" fill="#000"/>
<circle cx="9.068965517241379" cy="13.482758620689655" r="0.46344827586206894" fill="#000"/>
<circle cx="15.689655172413792" cy="13.482758620689655" r="0.46344827586206894" fill="#000"/>
<circle cx="16.79310344827586" cy="13.482758620689655" r="0.46344827586206894" fill="#000"/>
<circle cx="19" cy="13.482758620689655" r="0.46344827586206894" fill="#000"/>
<circle cx="21.20689655172414" cy="13.482758620689655" r="0.46344827586206894" fill="#000"/>
<circle cx="22.310344827586206" cy="13.482758620689655" r="0.46344827586206894" fill="#000"/>
<circle cx="23.413793103448278" cy="13.482758620689655" r="0.46344827586206894" fill="#000"/>
<circle cx="26.724137931034484" cy="13.482758620689655" r="0.46344827586206894" fill="#000"/>
<circle cx="27.82758620689655" cy="13.482758620689655" r="0.46344827586206894" fill="#000"/>
<circle cx="31.137931034482758" cy="13.482758620689655" r="0.46344827586206894" fill="#000"/>
<circle cx="34.44827586206896" cy="13.482758620689655" r="0.46344827586206894" fill="#000"/>
<circle cx="3.5517241379310347" cy="14.586206896551724" r="0.46344827586206894" fill="#000"/>
<circle cx="4.655172413793104" cy="14.586206896551724" r="0.46344827586206894" fill="#000"/>
<circle cx="5.758620689655173" cy="14.586206896551724" r="0.46344827586206894" fill="#000"/>
<circle cx="10.172413793103447" cy="14.586206896551724" r="0.46344827586206894" fill="#000"/>
<circle cx="11.275862068965516" cy="14.586206896551724" r="0.46344827586206894" fill="#000"/>
<circle cx="12.379310344827585" cy="14.586206896551724" r="0.46344827586206894" fill="#000"/>
<circle cx="13.482758620689655" cy="14.586206896551724" r="0.46344827586206894" fill="#000"/>
<circle cx="22.310344827586206" cy="14.586206896551724" r="0.46344827586206894" fill="#000"/>
<circle cx="23.413793103448278" cy="14.586206896551724" r="0.46344827586206894" fill="#000"/>
<circle cx="24.517241379310345" cy="14.586206896551724" r="0.46344827586206894" fill="#000"/>
<circle cx="25.620689655172416" cy="14.586206896551724" r="0.46344827586206894" fill="#000"/>
<circle cx="26.724137931034484" cy="14.586206896551724" r="0.46344827586206894" fill="#000"/>
<circle cx="27.82758620689655" cy="14.586206896551724" r="0.46344827586206894" fill="#000"/>
<circle cx="28.931034482758623" cy="14.586206896551724" r="0.46344827586206894" fill="#000"/>
<circle cx="30.03448275862069" cy="14.586206896551724" r="0.46344827586206894" fill="#000"/>
<circle cx="31.137931034482758" cy="14.586206896551724" r="0.46344827586206894" fill="#000"/>
<circle cx="32.241379310344826" cy="14.586206896551724" r="0.46344827586206894" fill="#000"/>
<circle cx="33.34482758620689" cy="14.586206896551724" r="0.46344827586206894" fill="#000"/>
<circle cx="3.5517241379310347" cy="15.689655172413792" r="0.46344827586206894" fill="#000"/>
<circle cx="4.655172413793104" cy="15.689655172413792" r="0.46344827586206894" fill="#000"/>
<circle cx="7.9655172413793105" cy="15.689655172413792" r="0.46344827586206894" fill="#000"/>
<circle cx="11.275862068965516" cy="15.689655172413792" r="0.46344827586206894" fill="#000"/>
<circle cx="13.482758620689655" cy="15.689655172413792" r="0.46344827586206894" fill="#000"/>
<circle cx="19" cy="15.689655172413792" r="0.46344827586206894" fill="#000"/>
<circle cx="20.10344827586207" cy="15.689655172413792" r="0.46344827586206894" fill="#000"/>
<circle cx="21.20689655172414" cy="15.689655172413792" r="0.46344827586206894" fill="#000"/>
<circle cx="24.517241379310345" cy="15.689655172413792" r="0.46344827586206894" fill="#000"/>
<circle cx="25.620689655172416" cy="15.689655172413792" r="0.46344827586206894" fill="#000"/>
<circle cx="26.724137931034484" cy="15.689655172413792" r="0.46344827586206894" fill="#000"/>
<circle cx="32.241379310344826" cy="15.689655172413792" r="0.46344827586206894" fill="#000"/>
<circle cx="33.34482758620689" cy="15.689655172413792" r="0.46344827586206894" fill="#000"/>
<circle cx="3.5517241379310347" cy="16.79310344827586" r="0.46344827586206894" fill="#000"/>
<circle cx="4.655172413793104" cy="16.79310344827586" r="0.46344827586206894" fill="#000"/>
<circle cx="5.758620689655173" cy="16.79310344827586" r="0.46344827586206894" fill="#000"/>
<circle cx="10.172413793103447" cy="16.79310344827586" r="0.46344827586206894" fill="#000"/>
<circle cx="11.275862068965516" cy="16.79310344827586" r="0.46344827586206894" fill="#000"/>
<circle cx="13.482758620689655" cy="16.79310344827586" r="0.46344827586206894" fill="#000"/>
<circle cx="15.689655172413792" cy="16.79310344827586" r="0.46344827586206894" fill="#000"/>
<circle cx="21.20689655172414" cy="16.79310344827586" r="0.46344827586206894" fill="#000"/>
<circle cx="22.310344827586206" cy="16.79310344827586" r="0.46344827586206894" fill="#000"/>
<circle cx="23.413793103448278" cy="16.79310344827586" r="0.46344827586206894" fill="#000"/>
<circle cx="26.724137931034484" cy="16.79310344827586" r="0.46344827586206894" fill="#000"/>
<circle cx="27.82758620689655" cy="16.79310344827586" r="0.46344827586206894" fill="#000"/>
<circle cx="31.137931034482758" cy="16.79310344827586" r="0.46344827586206894" fill="#000"/>
<circle cx="33.34482758620689" cy="16.79310344827586" r="0.46344827586206894" fill="#000"/>
<circle cx="34.44827586206896" cy="16.79310344827586" r="0.46344827586206894" fill="#000"/>
<circle cx="4.655172413793104" cy="17.896551724137932" r="0.46344827586206894" fill="#000"/>
<circle cx="7.9655172413793105" cy="17.896551724137932" r="0.46344827586206894" fill="#000"/>
<circle cx="11.275862068965516" cy="17.896551724137932" r="0.46344827586206894" fill="#000"/>
<circle cx="12.379310344827585" cy="17.896551724137932" r="0.46344827586206894" fill="#000"/>
<circle cx="13.482758620689655" cy="17.896551724137932" r="0.46344827586206894" fill="#000"/>
<circle cx="16.79310344827586" cy="17.896551724137932" r="0.46344827586206894" fill="#000"/>
<circle cx="24.517241379310345" cy="17.896551724137932" r="0.46344827586206894" fill="#000"/>
<circle cx="26.724137931034484" cy="17.896551724137932" r="0.46344827586206894" fill="#000"/>
<circle cx="3.5517241379310347" cy="19" r="0.46344827586206894" fill="#000"/>
<circle cx="5.758620689655173" cy="19" r="0.46344827586206894" fill="#000"/>
<circle cx="7.9655172413793105" cy="19" r="0.46344827586206894" fill="#000"/>
<circle cx="9.068965517241379" cy="19" r="0.46344827586206894" fill="#000"/>
<circle cx="10.172413793103447" cy="19" r="0.46344827586206894" fill="#000"/>
<circle cx="11.275862068965516" cy="19" r="0.46344827586206894" fill="#000"/>
<circle cx="13.482758620689655" cy="19" r="0.46344827586206894" fill="#000"/>
<circle cx="25.620689655172416" cy="19" r="0.46344827586206894" fill="#000"/>
<circle cx="31.137931034482758" cy="19" r="0.46344827586206894" fill="#000"/>
<circle cx="32.241379310344826" cy="19" r="0.46344827586206894" fill="#000"/>
<circle cx="33.34482758620689" cy="19" r="0.46344827586206894" fill="#000"/>
<circle cx="34.44827586206896" cy="19" r="0.46344827586206894" fill="#000"/>
<circle cx="5.758620689655173" cy="20.10344827586207" r="0.46344827586206894" fill="#000"/>
<circle cx="6.862068965517241" cy="20.10344827586207" r="0.46344827586206894" fill="#000"/>
<circle cx="7.9655172413793105" cy="20.10344827586207" r="0.46344827586206894" fill="#000"/>
<circle cx="12.379310344827585" cy="20.10344827586207" r="0.46344827586206894" fill="#000"/>
<circle cx="13.482758620689655" cy="20.10344827586207" r="0.46344827586206894" fill="#000"/>
<circle cx="15.689655172413792" cy="20.10344827586207" r="0.46344827586206894" fill="#000"/>
<circle cx="16.79310344827586" cy="20.10344827586207" r="0.46344827586206894" fill="#000"/>
<circle cx="17.896551724137932" cy="20.10344827586207" r="0.46344827586206894" fill="#000"/>
<circle cx="19" cy="20.10344827586207" r="0.46344827586206894" fill="#000"/>
<circle cx="21.20689655172414" cy="20.10344827586207" r="0.46344827586206894" fill="#000"/>
<circle cx="22.310344827586206" cy="20.10344827586207" r="0.46344827586206894" fill="#000"/>
<circle cx="23.413793103448278" cy="20.10344827586207" r="0.46344827586206894" fill="#000"/>
<circle cx="26.724137931034484" cy="20.10344827586207" r="0.46344827586206894" fill="#000"/>
<circle cx="28.931034482758623" cy="20.10344827586207" r="0.46344827586206894" fill="#000"/>
<circle cx="31.137931034482758" cy="20.10344827586207" r="0.46344827586206894" fill="#000"/>
<circle cx="33.34482758620689" cy="20.10344827586207" r="0.46344827586206894" fill="#000"/>
<circle cx="4.655172413793104" cy="21.20689655172414" r="0.46344827586206894" fill="#000"/>
<circle cx="5.758620689655173" cy="21.20689655172414" r="0.46344827586206894" fill="#000"/>
<circle cx="6.862068965517241" cy="21.20689655172414" r="0.46344827586206894" fill="#000"/>
<circle cx="7.9655172413793105" cy="21.20689655172414" r="0.46344827586206894" fill="#000"/>
<circle cx="10.172413793103447" cy="21.20689655172414" r="0.46344827586206894" fill="#000"/>
<circle cx="11.275862068965516" cy="21.20689655172414" r="0.46344827586206894" fill="#000"/>
<circle cx="15.689655172413792" cy="21.20689655172414" r="0.46344827586206894" fill="#000"/>
<circle cx="16.79310344827586" cy="21.20689655172414" r="0.46344827586206894" fill="#000"/>
<circle cx="17.896551724137932" cy="21.20689655172414" r="0.46344827586206894" fill="#000"/>
<circle cx="19" cy="21.20689655172414" r="0.46344827586206894" fill="#000"/>
<circle cx="21.20689655172414" cy="21.20689655172414" r="0.46344827586206894" fill="#000"/>
<circle cx="22.310344827586206" cy="21.20689655172414" r="0.46344827586206894" fill="#000"/>
<circle cx="24.517241379310345" cy="21.20689655172414" r="0.46344827586206894" fill="#000"/>
<circle cx="26.724137931034484" cy="21.20689655172414" r="0.46344827586206894" fill="#000"/>
<circle cx="33.34482758620689" cy="21.20689655172414" r="0.46344827586206894" fill="#000"/>
<circle cx="5.758620689655173" cy="22.310344827586206" r="0.46344827586206894" fill="#000"/>
<circle cx="7.9655172413793105" cy="22.310344827586206" r="0.46344827586206894" fill="#000"/>
<circle cx="11.275862068965516" cy="22.310344827586206" r="0.46344827586206894" fill="#000"/>
<circle cx="14.586206896551724" cy="22.310344827586206" r="0.46344827586206894" fill="#000"/>
<circle cx="16.79310344827586" cy="22.310344827586206" r="0.46344827586206894" fill="#000"/>
<circle cx="21.20689655172414" cy="22.310344827586206" r="0.46344827586206894" fill="#000"/>
<circle cx="25.620689655172416" cy="22.310344827586206" r="0.46344827586206894" fill="#000"/>
<circle cx="26.724137931034484" cy="22.310344827586206" r="0.46344827586206894" fill="#000"/>
<circle cx="27.82758620689655" cy="22.310344827586206" r="0.46344827586206894" fill="#000"/>
<circle cx="28.931034482758623" cy="22.310344827586206" r="0.46344827586206894" fill="#000"/>
<circle cx="31.137931034482758" cy="22.310344827586206" r="0.46344827586206894" fill="#000"/>
<circle cx="34.44827586206896" cy="22.310344827586206" r="0.46344827586206894" fill="#000"/>
<circle cx="3.5517241379310347" cy="23.413793103448278" r="0.46344827586206894" fill="#000"/>
<circle cx="6.862068965517241" cy="23.413793103448278" r="0.46344827586206894" fill="#000"/>
<circle cx="7.9655172413793105" cy="23.413793103448278" r="0.46344827586206894" fill="#000"/>
<circle cx="9.068965517241379" cy="23.413793103448278" r="0.46344827586206894" fill="#000"/>
<circle cx="10.172413793103447" cy="23.413793103448278" r="0.46344827586206894" fill="#000"/>
<circle cx="13.482758620689655" cy="23.413793103448278" r="0.46344827586206894" fill="#000"/>
<circle cx="16.79310344827586" cy="23.413793103448278" r="0.46344827586206894" fill="#000"/>
<circle cx="17.896551724137932" cy="23.413793103448278" r="0.46344827586206894" fill="#000"/>
<circle cx="21.20689655172414" cy="23.413793103448278" r="0.46344827586206894" fill="#000"/>
<circle cx="25.620689655172416" cy="23.413793103448278" r="0.46344827586206894" fill="#000"/>
<circle cx="26.724137931034484" cy="23.413793103448278" r="0.46344827586206894" fill="#000"/>
<circle cx="28.931034482758623" cy="23.413793103448278" r="0.46344827586206894" fill="#000"/>
<circle cx="33.34482758620689" cy="23.413793103448278" r="0.46344827586206894" fill="#000"/>
<circle cx="34.44827586206896" cy="23.413793103448278" r="0.46344827586206894" fill="#000"/>
<circle cx="5.758620689655173" cy="24.517241379310345" r="0.46344827586206894" fill="#000"/>
<circle cx="9.068965517241379" cy="24.517241379310345" r="0.46344827586206894" fill="#000"/>
<circle cx="12.379310344827585" cy="24.517241379310345" r="0.46344827586206894" fill="#000"/>
<circle cx="13.482758620689655" cy="24.517241379310345" r="0.46344827586206894" fill="#000"/>
<circle cx="14.586206896551724" cy="24.517241379310345" r="0.46344827586206894" fill="#000"/>
<circle cx="17.896551724137932" cy="24.517241379310345" r="0.46344827586206894" fill="#000"/>
<circle cx="22.310344827586206" cy="24.517241379310345" r="0.46344827586206894" fill="#000"/>
<circle cx="23.413793103448278" cy="24.517241379310345" r="0.46344827586206894" fill="#000"/>
<circle cx="24.517241379310345" cy="24.517241379310345" r="0.46344827586206894" fill="#000"/>
<circle cx="30.03448275862069" cy="24.517241379310345" r="0.46344827586206894" fill="#000"/>
<circle cx="33.34482758620689" cy="24.517241379310345" r="0.46344827586206894" fill="#000"/>
<circle cx="34.44827586206896" cy="24.517241379310345" r="0.46344827586206894" fill="#000"/>
<circle cx="3.5517241379310347" cy="25.620689655172416" r="0.46344827586206894" fill="#000"/>
<circle cx="7.9655172413793105" cy="25.620689655172416" r="0.46344827586206894" fill="#000"/>
<circle cx="9.068965517241379" cy="25.620689655172416" r="0.46344827586206894" fill="#000"/>
<circle cx="10.172413793103447" cy="25.620689655172416" r="0.46344827586206894" fill="#000"/>
<circle cx="11.275862068965516" cy="25.620689655172416" r="0.46344827586206894" fill="#000"/>
<circle cx="12.379310344827585" cy="25.620689655172416" r="0.46344827586206894" fill="#000"/>
<circle cx="13.482758620689655" cy="25.620689655172416" r="0.46344827586206894" fill="#000"/>
<circle cx="16.79310344827586" cy="25.620689655172416" r="0.46344827586206894" fill="#000"/>
<circle cx="19" cy="25.620689655172416" r="0.46344827586206894" fill="#000"/>
<circle cx="21.20689655172414" cy="25.620689655172416" r="0.46344827586206894" fill="#000"/>
<circle cx="24.517241379310345" cy="25.620689655172416" r="0.46344827586206894" fill="#000"/>
<circle cx="25.620689655172416" cy="25.620689655172416" r="0.46344827586206894" fill="#000"/>
<circle cx="26.724137931034484" cy="25.620689655172416" r="0.46344827586206894" fill="#000"/>
<circle cx="27.82758620689655" cy="25.620689655172416" r="0.46344827586206894" fill="#000"/>
<circle cx="28.931034482758623" cy="25.620689655172416" r="0.46344827586206894" fill="#000"/>
<circle cx="30.03448275862069" cy="25.620689655172416" r="0.46344827586206894" fill="#000"/>
<circle cx="32.241379310344826" cy="25.620689655172416" r="0.46344827586206894" fill="#000"/>
<circle cx="12.379310344827585" cy="26.724137931034484" r="0.46344827586206894" fill="#000"/>
<circle cx="13.482758620689655" cy="26.724137931034484" r="0.46344827586206894" fill="#000"/>
<circle cx="14.586206896551724" cy="26.724137931034484" r="0.46344827586206894" fill="#000"/>
<circle cx="15.689655172413792" cy="26.724137931034484" r="0.46344827586206894" fill="#000"/>
<circle cx="17.896551724137932" cy="26.724137931034484" r="0.46344827586206894" fill="#000"/>
<circle cx="21.20689655172414" cy="26.724137931034484" r="0.46344827586206894" fill="#000"/>
<circle cx="23.413793103448278" cy="26.724137931034484" r="0.46344827586206894" fill="#000"/>
<circle cx="25.620689655172416" cy="26.724137931034484" r="0.46344827586206894" fill="#000"/>
<circle cx="30.03448275862069" cy="26.724137931034484" r="0.46344827586206894" fill="#000"/>
<circle cx="32.241379310344826" cy="26.724137931034484" r="0.46344827586206894" fill="#000"/>
<circle cx="33.34482758620689" cy="26.724137931034484" r="0.46344827586206894" fill="#000"/>
<circle cx="34.44827586206896" cy="26.724137931034484" r="0.46344827586206894" fill="#000"/>
<rect x="3" y="27.275862068965516" width="1.103448275862069" height="1.103448275862069" rx="0.16551724137931034" fill="#000"/>
<rect x="4.103448275862069" y="27.275862068965516" width="1.103448275862069" height="1.103448275862069" rx="0.16551724137931034" fill="#000"/>
<rect x="5.206896551724138" y="27.275862068965516" width="1.103448275862069" height="1.103448275862069" rx="0.16551724137931034" fill="#000"/>
<rect x="6.310344827586206" y="27.275862068965516" width="1.103448275862069" height="1.103448275862069" rx="0.16551724137931034" fill="#000"/>
<rect x="7.413793103448276" y="27.275862068965516" width="1.103448275862069" height="1.103448275862069" rx="0.16551724137931034" fill="#000"/>
<rect x="8.517241379310345" y="27.275862068965516" width="1.103448275862069" height="1.103448275862069" rx="0.16551724137931034" fill="#000"/>
<rect x="9.620689655172413" y="27.275862068965516" width="1.103448275862069" height="1.103448275862069" rx="0.16551724137931034" fill="#000"/>
<circle cx="16.79310344827586" cy="27.82758620689655" r="0.46344827586206894" fill="#000"/>
<circle cx="17.896551724137932" cy="27.82758620689655" r="0.46344827586206894" fill="#000"/>
<circle cx="19" cy="27.82758620689655" r="0.46344827586206894" fill="#000"/>
<circle cx="22.310344827586206" cy="27.82758620689655" r="0.46344827586206894" fill="#000"/>
<circle cx="23.413793103448278" cy="27.82758620689655" r="0.46344827586206894" fill="#000"/>
<circle cx="25.620689655172416" cy="27.82758620689655" r="0.46344827586206894" fill="#000"/>
<circle cx="27.82758620689655" cy="27.82758620689655" r="0.46344827586206894" fill="#000"/>
<circle cx="30.03448275862069" cy="27.82758620689655" r="0.46344827586206894" fill="#000"/>
<circle cx="33.34482758620689" cy="27.82758620689655" r="0.46344827586206894" fill="#000"/>
<rect x="3" y="28.379310344827587" width="1.103448275862069" height="1.103448275862069" rx="0.16551724137931034" fill="#000"/>
<rect x="9.620689655172413" y="28.379310344827587" width="1.103448275862069" height="1.103448275862069" rx="0.16551724137931034" fill="#000"/>
<circle cx="12.379310344827585" cy="28.931034482758623" r="0.46344827586206894" fill="#000"/>
<circle cx="13.482758620689655" cy="28.931034482758623" r="0.46344827586206894" fill="#000"/>
<circle cx="14.586206896551724" cy="28.931034482758623" r="0.46344827586206894" fill="#000"/>
<circle cx="15.689655172413792" cy="28.931034482758623" r="0.46344827586206894" fill="#000"/>
<circle cx="16.79310344827586" cy="28.931034482758623" r="0.46344827586206894" fill="#000"/>
<circle cx="17.896551724137932" cy="28.931034482758623" r="0.46344827586206894" fill="#000"/>
<circle cx="20.10344827586207" cy="28.931034482758623" r="0.46344827586206894" fill="#000"/>
<circle cx="21.20689655172414" cy="28.931034482758623" r="0.46344827586206894" fill="#000"/>
<circle cx="24.517241379310345" cy="28.931034482758623" r="0.46344827586206894" fill="#000"/>
<circle cx="25.620689655172416" cy="28.931034482758623" r="0.46344827586206894" fill="#000"/>
<circle cx="30.03448275862069" cy="28.931034482758623" r="0.46344827586206894" fill="#000"/>
<circle cx="31.137931034482758" cy="28.931034482758623" r="0.46344827586206894" fill="#000"/>
<circle cx="32.241379310344826" cy="28.931034482758623" r="0.46344827586206894" fill="#000"/>
<circle cx="33.34482758620689" cy="28.931034482758623" r="0.46344827586206894" fill="#000"/>
<rect x="3" y="29.482758620689655" width="1.103448275862069" height="1.103448275862069" rx="0.16551724137931034" fill="#000"/>
<rect x="5.206896551724138" y="29.482758620689655" width="1.103448275862069" height="1.103448275862069" rx="0.16551724137931034" fill="#000"/>
<rect x="6.310344827586206" y="29.482758620689655" width="1.103448275862069" height="1.103448275862069" rx="0.16551724137931034" fill="#000"/>
<rect x="7.413793103448276" y="29.482758620689655" width="1.103448275862069" height="1.103448275862069" rx="0.16551724137931034" fill="#000"/>
<rect x="9.620689655172413" y="29.482758620689655" width="1.103448275862069" height="1.103448275862069" rx="0.16551724137931034" fill="#000"/>
<circle cx="14.586206896551724" cy="30.03448275862069" r="0.46344827586206894" fill="#000"/>
<circle cx="16.79310344827586" cy="30.03448275862069" r="0.46344827586206894" fill="#000"/>
<circle cx="19" cy="30.03448275862069" r="0.46344827586206894" fill="#000"/>
<circle cx="22.310344827586206" cy="30.03448275862069" r="0.46344827586206894" fill="#000"/>
<circle cx="25.620689655172416" cy="30.03448275862069" r="0.46344827586206894" fill="#000"/>
<circle cx="26.724137931034484" cy="30.03448275862069" r="0.46344827586206894" fill="#000"/>
<circle cx="27.82758620689655" cy="30.03448275862069" r="0.46344827586206894" fill="#000"/>
<circle cx="28.931034482758623" cy="30.03448275862069" r="0.46344827586206894" fill="#000"/>
<circle cx="30.03448275862069" cy="30.03448275862069" r="0.46344827586206894" fill="#000"/>
<circle cx="33.34482758620689" cy="30.03448275862069" r="0.46344827586206894" fill="#000"/>
<circle cx="34.44827586206896" cy="30.03448275862069" r="0.46344827586206894" fill="#000"/>
<rect x="3" y="30.586206896551722" width="1.103448275862069" height="1.103448275862069" rx="0.16551724137931034" fill="#000"/>
<rect x="5.206896551724138" y="30.586206896551722" width="1.103448275862069" height="1.103448275862069" rx="0.16551724137931034" fill="#000"/>
<rect x="6.310344827586206" y="30.586206896551722" width="1.103448275862069" height="1.103448275862069" rx="0.16551724137931034" fill="#000"/>
<rect x="7.413793103448276" y="30.586206896551722" width="1.103448275862069" height="1.103448275862069" rx="0.16551724137931034" fill="#000"/>
<rect x="9.620689655172413" y="30.586206896551722" width="1.103448275862069" height="1.103448275862069" rx="0.16551724137931034" fill="#000"/>
<circle cx="12.379310344827585" cy="31.137931034482758" r="0.46344827586206894" fill="#000"/>
<circle cx="13.482758620689655" cy="31.137931034482758" r="0.46344827586206894" fill="#000"/>
<circle cx="19" cy="31.137931034482758" r="0.46344827586206894" fill="#000"/>
<circle cx="21.20689655172414" cy="31.137931034482758" r="0.46344827586206894" fill="#000"/>
<circle cx="23.413793103448278" cy="31.137931034482758" r="0.46344827586206894" fill="#000"/>
<circle cx="27.82758620689655" cy="31.137931034482758" r="0.46344827586206894" fill="#000"/>
<circle cx="28.931034482758623" cy="31.137931034482758" r="0.46344827586206894" fill="#000"/>
<circle cx="30.03448275862069" cy="31.137931034482758" r="0.46344827586206894" fill="#000"/>
<circle cx="31.137931034482758" cy="31.137931034482758" r="0.46344827586206894" fill="#000"/>
<circle cx="32.241379310344826" cy="31.137931034482758" r="0.46344827586206894" fill="#000"/>
<circle cx="33.34482758620689" cy="31.137931034482758" r="0.46344827586206894" fill="#000"/>
<rect x="3" y="31.68965517241379" width="1.103448275862069" height="1.103448275862069" rx="0.16551724137931034" fill="#000"/>
<rect x="5.206896551724138" y="31.68965517241379" width="1.103448275862069" height="1.103448275862069" rx="0.16551724137931034" fill="#000"/>
<rect x="6.310344827586206" y="31.68965517241379" width="1.103448275862069" height="1.103448275862069" rx="0.16551724137931034" fill="#000"/>
<rect x="7.413793103448276" y="31.68965517241379" width="1.103448275862069" height="1.103448275862069" rx="0.16551724137931034" fill="#000"/>
<rect x="9.620689655172413" y="31.68965517241379" width="1.103448275862069" height="1.103448275862069" rx="0.16551724137931034" fill="#000"/>
<circle cx="15.689655172413792" cy="32.241379310344826" r="0.46344827586206894" fill="#000"/>
<circle cx="17.896551724137932" cy="32.241379310344826" r="0.46344827586206894" fill="#000"/>
<circle cx="19" cy="32.241379310344826" r="0.46344827586206894" fill="#000"/>
<circle cx="22.310344827586206" cy="32.241379310344826" r="0.46344827586206894" fill="#000"/>
<circle cx="23.413793103448278" cy="32.241379310344826" r="0.46344827586206894" fill="#000"/>
<circle cx="24.517241379310345" cy="32.241379310344826" r="0.46344827586206894" fill="#000"/>
<circle cx="26.724137931034484" cy="32.241379310344826" r="0.46344827586206894" fill="#000"/>
<circle cx="30.03448275862069" cy="32.241379310344826" r="0.46344827586206894" fill="#000"/>
<circle cx="31.137931034482758" cy="32.241379310344826" r="0.46344827586206894" fill="#000"/>
<circle cx="32.241379310344826" cy="32.241379310344826" r="0.46344827586206894" fill="#000"/>
<circle cx="34.44827586206896" cy="32.241379310344826" r="0.46344827586206894" fill="#000"/>
<rect x="3" y="32.79310344827586" width="1.103448275862069" height="1.103448275862069" rx="0.16551724137931034" fill="#000"/>
<rect x="9.620689655172413" y="32.79310344827586" width="1.103448275862069" height="1.103448275862069" rx="0.16551724137931034" fill="#000"/>
<circle cx="14.586206896551724" cy="33.34482758620689" r="0.46344827586206894" fill="#000"/>
<circle cx="19" cy="33.34482758620689" r="0.46344827586206894" fill="#000"/>
<circle cx="20.10344827586207" cy="33.34482758620689" r="0.46344827586206894" fill="#000"/>
<circle cx="22.310344827586206" cy="33.34482758620689" r="0.46344827586206894" fill="#000"/>
<circle cx="23.413793103448278" cy="33.34482758620689" r="0.46344827586206894" fill="#000"/>
<circle cx="25.620689655172416" cy="33.34482758620689" r="0.46344827586206894" fill="#000"/>
<circle cx="26.724137931034484" cy="33.34482758620689" r="0.46344827586206894" fill="#000"/>
<circle cx="28.931034482758623" cy="33.34482758620689" r="0.46344827586206894" fill="#000"/>
<circle cx="33.34482758620689" cy="33.34482758620689" r="0.46344827586206894" fill="#000"/>
<rect x="3" y="33.89655172413793" width="1.103448275862069" height="1.103448275862069" rx="0.16551724137931034" fill="#000"/>
<rect x="4.103448275862069" y="33.89655172413793" width="1.103448275862069" height="1.103448275862069" rx="0.16551724137931034" fill="#000"/>
<rect x="5.206896551724138" y="33.89655172413793" width="1.103448275862069" height="1.103448275862069" rx="0.16551724137931034" fill="#000"/>
<rect x="6.310344827586206" y="33.89655172413793" width="1.103448275862069" height="1.103448275862069" rx="0.16551724137931034" fill="#000"/>
<rect x="7.413793103448276" y="33.89655172413793" width="1.103448275862069" height="1.103448275862069" rx="0.16551724137931034" fill="#000"/>
<rect x="8.517241379310345" y="33.89655172413793" width="1.103448275862069" height="1.103448275862069" rx="0.16551724137931034" fill="#000"/>
<rect x="9.620689655172413" y="33.89655172413793" width="1.103448275862069" height="1.103448275862069" rx="0.16551724137931034" fill="#000"/>
<circle cx="12.379310344827585" cy="34.44827586206896" r="0.46344827586206894" fill="#000"/>
<circle cx="14.586206896551724" cy="34.44827586206896" r="0.46344827586206894" fill="#000"/>
<circle cx="20.10344827586207" cy="34.44827586206896" r="0.46344827586206894" fill="#000"/>
<circle cx="22.310344827586206" cy="34.44827586206896" r="0.46344827586206894" fill="#000"/>
<circle cx="25.620689655172416" cy="34.44827586206896" r="0.46344827586206894" fill="#000"/>
<circle cx="26.724137931034484" cy="34.44827586206896" r="0.46344827586206894" fill="#000"/>
<circle cx="27.82758620689655" cy="34.44827586206896" r="0.46344827586206894" fill="#000"/>
<circle cx="28.931034482758623" cy="34.44827586206896" r="0.46344827586206894" fill="#000"/>
<circle cx="31.137931034482758" cy="34.44827586206896" r="0.46344827586206894" fill="#000"/>
<circle cx="33.34482758620689" cy="34.44827586206896" r="0.46344827586206894" fill="#000"/>
  <text x="19" y="36" text-anchor="middle" font-family="monospace" font-size="2" fill="#666">4fwdvh</text>
</svg>